<svg id="Layer_1" data-name="Layer 1" xmlns="http://www.w3.org/2000/svg" viewBox="0 0 841.89 595.28"><defs><style>.cls-1,.cls-2,.cls-3{fill:#fff;}.cls-2{font-size:50.55px;}.cls-2,.cls-3{font-family:Montserrat-Bold, Montserrat;font-weight:700;}.cls-3{font-size:41.93px;}.cls-4{fill:none;stroke:#fff;stroke-miterlimit:10;}</style></defs><path class="cls-1" d="M388.09,195.29l4.84.41A95.67,95.67,0,0,1,428,205a51.89,51.89,0,0,0,19.21,5.16c3.55.28,7.11.46,10.65.8,3.86.38,5.84,3.37,4.69,7.12a15.14,15.14,0,0,1-1.75,3.65A50.24,50.24,0,0,0,453.58,241c-.25,1.59-.37,3.22,1.07,4.42a5.86,5.86,0,0,0,1.51,1c4.55,1.86,8.77,4.17,11.92,8.07a8.08,8.08,0,0,1,2.21,5.64,4.5,4.5,0,0,1-5.29,4.41c-1.68-.21-3.37-.41-5-.71a3.21,3.21,0,0,0-2.11.36q-20.76,10-41.54,19.89a47.77,47.77,0,0,1-12.22,4.3c-1.24.22-2.48.37-3.73.48-2.7.24-4.89,1.73-7.11,3-.83.49-1.24,1.81-1.69,2.82a20,20,0,0,0-.72,14.32c2.19,7.51,4.55,15,6.83,22.44.45,1.46,0,2.66-1.43,3.09A12,12,0,0,1,392,335a31.81,31.81,0,0,1-13.3-4.11c-5.55-3.16-9.65-7.62-11-14.07a44.64,44.64,0,0,1-.41-6.58c-.12.09-.35.29-.58.5-7.15,6.54-13.81,13.55-20.27,20.76-3.89,4.35-7.71,8.77-11.6,13.13a15.59,15.59,0,0,0-4.24,9.1c-.35,3.68-1,7.34-.6,11.05.47,4.87,1.9,9.37,5.46,12.93,1.92,1.93,4.18,3,7,2.33a6.16,6.16,0,0,1,1.22-.06c3-.07,4.91-1.78,5.06-4.74a35.57,35.57,0,0,0-.21-6.19c-.42-3.42-1-6.83-1.63-10.22a29.94,29.94,0,0,0-1.45-4.19c1.81.44,3.51.85,5.2,1.28a54.47,54.47,0,0,1,13.05,4.72c4.9,2.71,9,6.31,11,11.67,2.16,5.61,1.56,10.9-2.48,15.74l4.5.49c7,.79,13.9,2,20.42,4.74,8.23,3.5,14.65,9,18.32,17.32.8,1.81,1.26,3.76,1.94,5.82-2.33.36-4.43.84-6.54,1-4.7.3-9.43.73-14.12.57a89.06,89.06,0,0,1-44.94-13.83,19.55,19.55,0,0,0-4.29-2,85.52,85.52,0,0,1-25-13.49,101.9,101.9,0,0,1-22.81-24.34l-.36-.5-.5.77a7.72,7.72,0,0,1-6.69,3.78c-4.54.15-8.64-1.52-12.74-3.13a22.14,22.14,0,0,1-10.05-7.37,15.37,15.37,0,0,1-2.59-12.77c1.42-6.83,3.2-13.58,4.59-20.42,1.89-9.29,3.6-18.61,5.27-27.95a53.47,53.47,0,0,0,.59-7.38,86.06,86.06,0,0,1,4.69-24.78,13.54,13.54,0,0,0,.49-6.43c-.91-5.82-2-11.62-3-17.42-.45-2.55,0-3.26,2.23-4.43a28.93,28.93,0,0,0,4.37-2.92,2.93,2.93,0,0,0,.88-3.67,13.74,13.74,0,0,0-6.36-7.27,31.19,31.19,0,0,1-3.64-2.2c1.25,0,2.5,0,3.75,0a18,18,0,0,0,8-1.69,11.47,11.47,0,0,0,2.25-1.37,2.82,2.82,0,0,0,.47-4.36A7.74,7.74,0,0,0,288.9,211c-1.59-.79-3.28-1.41-5.19-2.21,2.45,0,4.6,0,6.74,0a34.79,34.79,0,0,0,9.92-1.52c3.67-1,3.3-4.33,1.41-6a6.94,6.94,0,0,0-3-1.46c-2.88-.62-5.8-1-8.7-1.53a1.25,1.25,0,0,1-.82-.43c5.4-.09,10.8-.37,16.18-.23A75,75,0,0,1,328.58,202a13.32,13.32,0,0,1,6.27,4c2.51-1,4.95-2.09,7.44-3.05a111.84,111.84,0,0,1,26.64-6.65c3.3-.4,6.62-.59,9.93-.88a5,5,0,0,0,.67-.15Zm-39.92,58,.28-.12a3.23,3.23,0,0,1,.22.41,35.68,35.68,0,0,0,10.55,14.14c9.09,7.58,19.59,12.71,30.48,17.07a24.17,24.17,0,0,0,12.8,1.45,40.56,40.56,0,0,0,11.25-3.73q18.71-8.83,37.36-17.75l3.58-1.72c-.37-.11-.52-.18-.68-.21-3.88-.64-7.77-1.22-11.64-1.92-2.86-.52-5.73-1.06-8.53-1.84a7.71,7.71,0,0,1-5.21-4.51,1.51,1.51,0,0,0-1.15-1c-1.92-.53-3.82-1.11-5.82-1.69a51.37,51.37,0,0,1,8.54-22.67,1.38,1.38,0,0,1-.16.64,58.86,58.86,0,0,0-6.42,20c-.06.43-.1.73.48.9a28.7,28.7,0,0,0,10.73,1.38c.69-.06,1.38-.21,2.15-.33-.3-1.25-.58-2.36-.84-3.47-.51-2.25-1.15-4.47-1.47-6.75a15.52,15.52,0,0,1,1.65-8.58c3.24-7.16,9.06-11.81,15.59-15.71a6.69,6.69,0,0,1,4.4-.95,4.76,4.76,0,0,1,3.68,2.38,1.88,1.88,0,0,0-1-2.6,9.08,9.08,0,0,0-5.55-.81c-3.59.42-6.71,2-9.71,3.93-.29.18-.59.34-.88.51l-.15-.25c1.56-1,3.06-2.13,4.68-3,4-2.27,8.23-3.44,13-1.59a3,3,0,0,0-2.71-1.68c-4.36-.36-8.73-.61-13.08-1a46.53,46.53,0,0,1-16.55-4.6,89.93,89.93,0,0,0-22.33-7.66,1.4,1.4,0,0,0-.84,0q-2.34,1.32-4.65,2.72c-4.91,3-9.61,6.16-13.21,10.71-5.18,6.55-6.7,13.71-3.64,21.65a54.21,54.21,0,0,0,7.71,13.57c5.14,6.69,11.53,11.47,20.08,12.86a4.86,4.86,0,0,1-1,0,27.94,27.94,0,0,1-13.29-6c-6.74-5.43-11.37-12.42-14.66-20.34a21,21,0,0,1-1.51-11.75c1-5.92,4.1-10.7,8.3-14.84a64.55,64.55,0,0,1,11.67-8.66l1.07-.69c-.46-.11-.72-.2-1-.24a109.31,109.31,0,0,0-27.4-.8,113.65,113.65,0,0,0-25.79,5.48,100,100,0,0,0-38.75,23.26,96.9,96.9,0,0,0-25,39.88,84.8,84.8,0,0,0-3.53,36.75A142.19,142.19,0,0,0,285,325.91c4.57,15.86,11.42,30.6,21.74,43.58,10,12.58,22.22,22.33,37.13,28.54,2.65,1.11,5.36,2.07,8.07,3.05.19.07.61-.16.79-.37a5.18,5.18,0,0,0,1.14-3.81A18.34,18.34,0,0,0,347.34,384a6.13,6.13,0,0,0-5.27-1.57,8.44,8.44,0,0,1-6.36-1.53A15.9,15.9,0,0,1,330.6,375c-2.54-4.69-3.18-9.75-3-15,0-.41.09-.81.1-1.22s0-.74,0-1.11c-2.07,6.65-2,13.45-1.76,20.29-.49-2.57-.93-5.14-1.19-7.72a42.13,42.13,0,0,1,.4-11.65,33.35,33.35,0,0,1,7.57-15.56c9.62-11.58,19.49-22.92,30.53-33.18a121.27,121.27,0,0,1,28-20l3.06-1.54-2.11-.52c-.65-.18-1.31-.33-1.95-.56a117.61,117.61,0,0,1-26.15-13.68,40.64,40.64,0,0,1-13.57-14.78C349.64,257,349,255.13,348.17,253.28ZM414.4,414.39c-1-2.14-1.81-4.18-2.93-6-4.13-6.77-10.25-11.07-17.63-13.71-7.55-2.69-15.43-3.54-23.33-4.29l-5.33-.5A20.31,20.31,0,0,1,368.1,388a10.06,10.06,0,0,0,5.32-8.39c.46-4.6-1.28-8.46-4.29-11.78-5.34-5.88-12.55-8-20-9.89a15.21,15.21,0,0,1,.42,1.68c.55,4.44,1.22,8.86,1.58,13.32.27,3.27-.42,6.35-3.46,8.31.8.68,1.59,1.28,2.28,2a.94.94,0,0,0,1.33.15,5.35,5.35,0,0,0,2.28-3,18.16,18.16,0,0,0,.77-9.82c-.39-1.87-1-3.69-1.48-5.41-.06-.05,0,0,.07.07.17.29.35.58.5.88a21,21,0,0,1,2.26,11.61c-.28,3-.87,5.93-4,8,.65.3,1.14.77,1.51.68,5.06-1.15,8.83-6.64,8.3-11.8a14.75,14.75,0,0,0-3.13-7.5c-.41-.55-.83-1.08-1.25-1.62,9.05,7.74,6.2,19.74-3.27,23.18l1.08,2.4c9.09-2.29,14.56-8,16.83-16.89-1.41,9.32-6.64,15.54-15.45,18.89a111.88,111.88,0,0,1,33.81,3.63A109.41,109.41,0,0,0,356,395.5a1.4,1.4,0,0,0,.85.58c2.36.33,4.72.58,7.06.92,5.77.83,11.54,1.67,17.3,2.58,4.44.69,8.86,1.49,13.29,2.24a5.21,5.21,0,0,1-1.72,0c-5.73-.63-11.46-1.32-17.19-1.88-6.25-.6-12.51-1.09-18.76-1.61a2.59,2.59,0,0,0-.86.24,3.18,3.18,0,0,0,.71.57,157.29,157.29,0,0,0,25.07,7.18,176.72,176.72,0,0,0,20.75,2.77,147.82,147.82,0,0,1-23.94-2.21A157.08,157.08,0,0,1,355.3,401l-1.12,1.64C372.77,413.72,392.69,417.61,414.4,414.39ZM294.32,212.65l-.24.25a5.26,5.26,0,0,1-1.88,6.1,16.27,16.27,0,0,1-2.7,1.6c-.82.42-1.7.72-2.61,1.09,6.73,2.68,11.83,5.39,13.24,7.09a44,44,0,0,0-14.71-5.5,7.24,7.24,0,0,1,.8.93,45.94,45.94,0,0,1,2.87,5.11,4.75,4.75,0,0,1-1.4,5.55c-1.06,1-2.2,1.85-3.26,2.73l8.12,2.22-.08.32a34.55,34.55,0,0,0-10.85-.56l3.16,17.35c10.14-22.16,26.06-38.85,47.88-49.85-2.28-3.58-19.8-7.14-25.39-7,1.22.71,2.37,1.33,3.48,2s2.23,1.44,3.29,2.22,2.11,1.61,3.11,2.47,1.89,1.73,3,2.75c-2.66-1.74-5.05-3.4-7.53-4.91a38.94,38.94,0,0,0-8.08-3.65c1.88,4.16.59,7.19-3.59,8.46-2,.63-4.16,1-6.32,1.55,1.63.89,3.24,1.75,4.82,2.66s3.09,1.83,4.61,2.78,3,2,4.47,2.94l-.06.07Zm-14.21,105-.31,0c-.6,5.9-1.28,11.79-1.77,17.7s-.78,11.83-1.16,17.75c0-7.1.06-14.19.33-21.27.2-5.29.62-10.57,1-15.84.28-3.5.67-7-.4-10.44-.07.24-.17.49-.22.75-2.06,11.71-4.66,23.31-7.46,34.86a39.43,39.43,0,0,0-1.16,7.92c-.15,4.48,2.14,7.92,5.61,10.53,4.8,3.6,10.37,5.38,16.24,6.23a5.87,5.87,0,0,0,4.61-1.2c1.36-1.09,2.19-3,1.62-4.2-.7-1.44-1.59-2.79-2.46-4.28l-1.09,6.72c-.26-2.51-.47-5-.61-7.44a17.6,17.6,0,0,0-2.82-7.93c-1.21,4.8-2.38,9.48-3.55,14.16a11.56,11.56,0,0,1,.15-2.13c.64-4.84,1.3-9.68,1.9-14.52a3.71,3.71,0,0,0-.26-1.67c-.77-2.06-1.61-4.1-2.42-6.14l-.71-1.83-.19,0-1.7,20.9c-.06-7.35-.11-14.69,0-22a24.27,24.27,0,0,0-1.2-9c-.08-.22-.14-.45-.2-.68C281.3,322.29,280.7,320,280.11,317.66ZM428.78,254.2a19.63,19.63,0,0,0,1.59,1.91,10.93,10.93,0,0,0,6.5,2.58c4.38.54,8.76,1,13.14,1.53,5.05.61,10.09,1.29,15.14,1.9a2.33,2.33,0,0,0,2.71-2.86,5,5,0,0,0-.72-2,24.06,24.06,0,0,0-2.78-3.49,33.21,33.21,0,0,0-9.31-6.11c-1.19-.59-2.3-1.33-3.45-2l.11-.2,1.07-.07c-1.62-4.18.1-8.12.7-12.33l-.73,1.07c1.56-3.74,3.23-7.42,4.89-11.12.37-.83.72-1.67,1-2.53a1.59,1.59,0,0,0-.79-2,4.59,4.59,0,0,0-5.3.59c2.06,0,3,.74,2.72,2.43a24.41,24.41,0,0,1-2.8,6.79c.65-2,1.4-4,2-6.06.52-1.84-.42-2.71-2.17-2a24.92,24.92,0,0,0-4.61,2.33,38.37,38.37,0,0,0-3.83,3.3c1.51-.34,2.86-.84,4.24-1.25a2,2,0,0,1,2.37,3.07c-.39.75-.86,1.46-1.29,2.18.23-.76.69-1.44.87-2.19a2.56,2.56,0,0,0-.13-2,2.11,2.11,0,0,0-1.91-.28c-4.9,2-8.85,4.94-10.33,10.28a15.65,15.65,0,0,0-.75,5.48c.24,2.61,1.1,5.16,1.59,7.75a4.69,4.69,0,0,0,2.17,3.19,14.91,14.91,0,0,0,3.35,1.65c4.15,1.33,8.44,1.14,12.71,1,.31,0,.82-.28.87-.51a1.52,1.52,0,0,0-.29-1.18,8.44,8.44,0,0,0-1.55-1.05,3.23,3.23,0,0,1,1.88.57,3,3,0,0,1,.8,1.82c0,.76-.63,1.15-1.37,1.26s-1.3.15-2,.23l0,.23,8.27,1.49.15-.39c-2.84-4-6.69-7-10.53-9.93,4.78,2.08,9.21,4.63,12.26,9a13.49,13.49,0,0,1,1.22,3.22l-.27.3a46.52,46.52,0,0,1-6.16-.49c-4.73-1-9.43-2.18-14.1-3.44-2.37-.63-4.86-1-6.94-2.51-.11-.08-.36,0-.54.06a21.89,21.89,0,0,1-3.34.72C433.1,254.28,431,254.2,428.78,254.2Zm-39.56,39.72a19.09,19.09,0,0,1-2,1.16,2.46,2.46,0,0,0-1.51,2,32.82,32.82,0,0,0-.63,4.72,66.33,66.33,0,0,0,.39,6.9,57.36,57.36,0,0,0,2.47,12.85c.46,1.32,1,2.6,1.57,3.9l-.29.07c-4.28-8.76-6-18.09-6-28-.84.76-1.93,1.34-2.4,2.25a28.7,28.7,0,0,0-3.3,13.09c0,2.65.23,5.31.34,7.61a33.71,33.71,0,0,1-.07-18.74c-5.4,2.79-7.65,8.61-5.71,15.46a15.37,15.37,0,0,1-1.56-8.53,6.19,6.19,0,0,0-.55,1.48,15.13,15.13,0,0,0,2.9,12.76c3.44,4.67,8.21,7.27,13.68,8.79a20.66,20.66,0,0,0,7.4,1.07c1.74-.15,1.72-.19,1.2-1.9-2.19-7.12-4.43-14.22-6.51-21.37a22.36,22.36,0,0,1-.7-10.47C388.24,297.32,388.76,295.68,389.22,293.92Z"/><path class="cls-1" d="M309.28,271.09a85.89,85.89,0,0,1,37.43-3.68c-.4,0-.8,0-1.19,0s-.88-.08-1.32-.1a84.72,84.72,0,0,0-33.92,5.33,8.39,8.39,0,0,1-1.23.47c-2.2.45-2.89,2-3,4.16a175,175,0,0,1,43.47-5.08,182.54,182.54,0,0,0-43.43,6.93,9.84,9.84,0,0,0,1.64,4.57c.11.18.59.26.86.21,5.31-1.08,10.6-2.28,15.93-3.25,6.73-1.22,13.5-2.25,20.25-3.36a2.28,2.28,0,0,1,.82,0c-12.25,2.33-24.41,5-36.64,8.34.86.94,1.59,1.82,2.42,2.59a1.71,1.71,0,0,0,1.13.21,124.48,124.48,0,0,0,16.54-2.12,130.35,130.35,0,0,0,17-4.66.69.69,0,0,1,.38-.05,130.38,130.38,0,0,1-32.83,8.76,16.45,16.45,0,0,0,2.89,1.66c9.63,3.2,18.8,1.29,27.76-2.63,2.22-1,4.37-2.11,6.7-3.24-5.64,3.84-16.78,9.57-28.28,8.84,9.13,4,26.43,2.23,36.27-13.52-.44.81-.84,1.65-1.33,2.43-4.92,7.88-11.92,13-21.11,14.34-12.18,1.79-22.32-2.28-29.91-12.11a12.46,12.46,0,0,1-2.75-9.52,12.25,12.25,0,0,1,4.73-7.93,24.27,24.27,0,0,1,10.25-4.48A68.56,68.56,0,0,1,337,262.43a53.5,53.5,0,0,1,12.82,1.92c-2-.21-4-.46-6-.62a69.07,69.07,0,0,0-17.35.74,53.39,53.39,0,0,0-12.15,3.21A13.59,13.59,0,0,0,309.28,271.09Z"/><path class="cls-1" d="M422.89,218.67l.2-1.12c1.41,2.38.73,7.42-2.91,10.32-3.18,2.53-8.37,2.8-10.82.48l1.54.15a10.18,10.18,0,0,1-4.54-4.43l-.32.2c.78,1.39,1.57,2.77,2.51,4.44a27,27,0,0,1-2.46-2.24c-3.45-4.12-2.82-11.83,1.18-15a9.9,9.9,0,0,1,5.41-1.81,14.09,14.09,0,0,1,6.72.68,6.28,6.28,0,0,1,3.31,2.68c-2.51-1.82-5.31-2-8.24-1.54a9.61,9.61,0,0,1,5.38,2.21A10.47,10.47,0,0,1,422.89,218.67Zm-15.08,1.56a6.38,6.38,0,1,0,6.39-6.39A6.39,6.39,0,0,0,407.81,220.23Z"/><path class="cls-1" d="M366.85,210.85c-1.67,3.55-3.32,7.1-5,10.63-2.17,4.48-4.41,8.93-6.59,13.41a16.39,16.39,0,0,0-2,7.07,13.85,13.85,0,0,0,2.81,7.83,54,54,0,0,0,26.73,20.71l1.39.51c-5.83-.84-13.08-4.05-18.69-8.21a49.08,49.08,0,0,1-11.48-12c-3.5-5.16-4-10.5-1-16,3.53-6.45,7.17-12.84,10.79-19.24.91-1.62,1.9-3.2,2.86-4.8Z"/><path class="cls-1" d="M323.33,382.15l1.38-2.28.18.08-1.09,3.33a10.88,10.88,0,0,1-5.07-2.08,15.31,15.31,0,0,1-6.38-10.72c-1.28-9.67,2.14-17.81,8.64-25.15-1.36,3-2.76,5.63-3.8,8.42s-1.7,5.75-2.54,8.63l.31.11,3.76-5.08.21.13c-3.09,5.12-5.81,10.31-2.94,16.76.53-3.08,1.55-5.68,3.77-7.67a12.16,12.16,0,0,0-2.41,6.64c-.12,2.46,0,4.85,2.44,6.55-.06-2.88.2-5.6,1.88-8a12.4,12.4,0,0,0-.66,6.09c.13.83.33,1.66.5,2.49A2,2,0,0,0,323.33,382.15Z"/><path class="cls-1" d="M444,264.85a37.59,37.59,0,0,1-22.89-3.64c-3.85-2-5.17-5.34-3.84-9.48a39.7,39.7,0,0,1,1.89-4.22l.27.11c-.3,1.22-.65,2.44-.89,3.67a11.92,11.92,0,0,0-.21,2.52,6,6,0,0,0,3.91,5.56A64,64,0,0,0,438,264C440,264.33,442,264.57,444,264.85Z"/><path class="cls-1" d="M342.61,225.79c-1.2,1.09-3.57.21-4.3-1.39a3.19,3.19,0,0,1,1.87-4.46C339.16,222.66,339.75,224.69,342.61,225.79Z"/><path class="cls-1" d="M330.7,221.81a24,24,0,0,1,0,2.84,1.73,1.73,0,0,0,.76,1.9c.64.43,1.21,1,1.84,1.47-1.28.58-3.92-.28-4.42-1.44a2,2,0,0,1,0-1.1A6,6,0,0,1,330.7,221.81Z"/><path class="cls-1" d="M340.63,231.27a3.45,3.45,0,0,1-2.81-6.21A6,6,0,0,0,340.63,231.27Z"/><path class="cls-1" d="M336,229.78a5.18,5.18,0,0,0,2.34,6.09,3.27,3.27,0,0,1-2.34-6.09Z"/><path class="cls-1" d="M343.76,232.92c-.73,2.62,0,4.58,2.3,5.87a2.21,2.21,0,0,1-2.55,0,3.29,3.29,0,0,1-1.66-3.24A2.83,2.83,0,0,1,343.76,232.92Z"/><path class="cls-1" d="M311.37,301.44a2.83,2.83,0,0,1-3.81.6,3.8,3.8,0,0,1-1.74-4.34C307.34,299.41,308.66,301.35,311.37,301.44Z"/><path class="cls-1" d="M298,291.52c.95.84,1.77,1.7,2.72,2.4s2,1.22,3,1.82a4,4,0,0,1-5.75-4.22Z"/><path class="cls-1" d="M326.7,232c-.86,2.5,0,4.21,2.19,5.36A2.78,2.78,0,0,1,325,235.9,2.82,2.82,0,0,1,326.7,232Z"/><path class="cls-1" d="M305,301.31a3.22,3.22,0,0,1-4-.07,3.19,3.19,0,0,1-.91-3.89A8.72,8.72,0,0,0,305,301.31Z"/><path class="cls-1" d="M297.92,301.62a6.38,6.38,0,0,0,4.29,4,2.78,2.78,0,0,1-3.87-.09A2.94,2.94,0,0,1,297.92,301.62Z"/><path class="cls-1" d="M320.63,322.94l4.73,2.18a2.32,2.32,0,0,1-3.06.8A2.53,2.53,0,0,1,320.63,322.94Z"/><path class="cls-1" d="M293.59,303.91l3.9,2.51a2.12,2.12,0,0,1-2.94.48A2.23,2.23,0,0,1,293.59,303.91Z"/><path class="cls-1" d="M321.29,329.41a2.35,2.35,0,0,1-3.11.53,2.15,2.15,0,0,1-1-2.75Z"/><path class="cls-1" d="M325.78,329.72a2.12,2.12,0,0,1-2.88.4,2,2,0,0,1-.7-2.81Z"/><path class="cls-1" d="M292.75,297.72l3.35,2.53a1.92,1.92,0,0,1-2.69.24A2,2,0,0,1,292.75,297.72Z"/><path class="cls-1" d="M321.11,331.91l3.89,2.15a2.12,2.12,0,0,1-2.69.51C321.34,334.12,321,333.35,321.11,331.91Z"/><path class="cls-1" d="M328.38,323.75l2.77,2.12a1.62,1.62,0,0,1-2.54.41A1.7,1.7,0,0,1,328.38,323.75Z"/><path class="cls-1" d="M419.67,220.22a4.74,4.74,0,1,1-4.78-4.69A4.76,4.76,0,0,1,419.67,220.22Z"/><path class="cls-1" d="M432.05,302.15a2,2,0,0,1-.44-1.53c0-.23.15-.33.34-.4a2.26,2.26,0,0,1,2.44.44,3.28,3.28,0,0,1,1.05,1.83H436a4.19,4.19,0,0,1,0-.71,5.83,5.83,0,0,1,.24-1.1,1.68,1.68,0,0,1,1.09-.94h.42a1.22,1.22,0,0,1,.48.71.69.69,0,0,0,.51.52s.09-.07.11-.11c.5-1,2.11-.88,2.76,0a1.16,1.16,0,0,1,0,1.4l.39.87c.93.08,1.11.87,1.45,1.57l-.92.66c-.23.17-.3.43-.22.9.69.18,1.39.34,2.07.55a22.92,22.92,0,0,1,8.2,4.62,39.72,39.72,0,0,1,6.85,7.79c.44.64.86,1.29,1.29,1.93.13.2.2.47.54.48.09,0,.18.19.26.3.63,1,1.25,1.93,1.9,2.88s1.42,2.11,2.22,3.1a13.12,13.12,0,0,0,1.69,1.64,7.07,7.07,0,0,0,3.27,1.42,25.72,25.72,0,0,0,7.11.58c2.78-.13,5.54-.51,8.3-.85,1.44-.18,2.9-.3,4.35-.45a2.57,2.57,0,0,0,1.16-.35,5,5,0,0,1,2.52-.64,19,19,0,0,0,5.18-1c2.29-.73,4.55-1.53,6.81-2.32a3.51,3.51,0,0,0,.79-.55c.22-.16.42-.35.65-.49a3.61,3.61,0,0,1,.57-.24,2.23,2.23,0,0,0,1-.7,5.53,5.53,0,0,1,.74-.71l1.51-1.32c.14-.13.29-.24.45-.08s.08.32-.05.45-.52.51-.79.75-.62.54-1,.78a2,2,0,0,0-.79,2.17,4.43,4.43,0,0,1,.06.51.64.64,0,0,1-.79,0,.84.84,0,0,0-1.2.07l-.13.08c-.73.48-.8.7-.57,1.55.1.36.16.73.25,1.17-.37,0-.69.09-1,.1l-3.3.11c-.25,0-.51.06-.75.09a.45.45,0,0,0,.34.48,2.65,2.65,0,0,1,1.2.77c.1.12.3.14.46.2a9.7,9.7,0,0,1,.93.41,1.14,1.14,0,0,1,.56.83.79.79,0,0,0,.28.52.81.81,0,0,1,0,1.35.64.64,0,0,0-.3.5c0,.3-.25.44-.51.52s-.66.18-1,.27c-.05-.77-.18-.88-1-.86l-.59,0c-.13-.48,0-.69.4-.66a8.31,8.31,0,0,1,1.13.22l-.23-.2a.34.34,0,0,1-.13-.45.37.37,0,0,1,.49-.18c.39.18.77.39,1.18.6a.72.72,0,0,0,.19-.13c.32-.3.26-.65-.15-.77a5,5,0,0,0-.85-.14l-1.9-.19a.38.38,0,0,1-.24-.06.43.43,0,0,1-.16-.28.37.37,0,0,1,.27-.17c.32,0,.64.11,1,.14s.89.05,1.35.08a.5.5,0,0,0-.34-.5,1.67,1.67,0,0,0-1.1-.16l-.3,0c-.22.05-.39,0-.46-.21a.32.32,0,0,1,.23-.44,1.65,1.65,0,0,0,.2-.11c-.38-.17-.67-.34-1-.45a8.73,8.73,0,0,0-3.05-.37.73.73,0,0,0-.55.57c0,.1,0,.2-.05.3a.25.25,0,0,1-.17.08.21.21,0,0,1-.15-.12,1.45,1.45,0,0,1,0-.3c0-.35-.08-.41-.43-.44s-.79,0-1.12-.28a.4.4,0,0,0-.25,0c-1,.1-2,.19-3,.32a2.33,2.33,0,0,0-1.16.5c.15.12.28.2.39.3a1.34,1.34,0,0,1,.32.39.34.34,0,0,1-.07.3c-.05.05-.19,0-.28,0s-.05,0-.08-.07a1.66,1.66,0,0,0-1.69-.58c-1.77.22-3.55.4-5.32.6s-3.27.42-4.91.57a36.33,36.33,0,0,1-6.43.07,22,22,0,0,1-5.27-1.11.76.76,0,0,0-.49,0,1.39,1.39,0,0,1-1.32-.22c-.25-.18-.48-.38-.72-.58a3.22,3.22,0,0,0-1.8-.9,3.06,3.06,0,0,0-1.17-2.4c-.45-.45-.91-.88-1.38-1.31a.67.67,0,0,1-.25-.63,2.61,2.61,0,0,0-.6-2.06,2.44,2.44,0,0,1-.66-1.42.5.5,0,0,0-.14-.27,43.75,43.75,0,0,0-6.68-8.35,23,23,0,0,0-8.49-5.31c-.67-.22-1.35-.4-2-.57a2.2,2.2,0,0,0-1-.06,6.32,6.32,0,0,1-1.23,0,3,3,0,0,0-1.66.27c-.35-.36-.28-1-.88-1.18a1.29,1.29,0,0,1-1.24.42c-1-.1-1.33.33-1.32,1.23a.86.86,0,0,1-.35.75c-.35.27-.69.55-1,.85a.83.83,0,0,0-.25.41c-.1.51-.16,1-.23,1.53a3.24,3.24,0,0,1-.6,1.56c-.07-.12-.13-.21-.18-.31a.59.59,0,0,0-.86-.3,3.5,3.5,0,0,0-.53.31c-.3.2-.59.41-.9.61a1.84,1.84,0,0,1-1.46.35c-.61.88-1.25,1.75-1.84,2.65a2.58,2.58,0,0,0-.45,1.68,1.76,1.76,0,0,0,1.46-.32c.28-.19.54-.42.81-.63a2.16,2.16,0,0,1,1.72-.54.51.51,0,0,0,.31-.09,2.65,2.65,0,0,1,1.56-.45c.55,0,1.1.05,1.64.08.21,0,.39.09.36.34s-.23.26-.43.25l-1.75-.06a1.67,1.67,0,0,0-1,.34v.47c.67,0,1.32.05,2,.12,1.24.14,2.48.31,3.72.48a26,26,0,0,0,3.54.36,3.14,3.14,0,0,0,.35-2.24,4,4,0,0,0-.54-1.59,1.09,1.09,0,0,1,0-1c.06-.2.15-.38.25-.65a3.45,3.45,0,0,0-.41.15,8.87,8.87,0,0,0-.81.55,1.88,1.88,0,0,1-1.71.32c-.64-.16-1.29-.33-1.94-.47a1,1,0,0,0-.43.07c-.12,0-.22.12-.33.14a.33.33,0,0,1-.43-.19.37.37,0,0,1,.1-.46l0,0c.57-.17.81-.68,1.17-1.08A7.39,7.39,0,0,1,437,311a1.55,1.55,0,0,1,1.23-.25c.45.1.9.23,1.34.37a7.12,7.12,0,0,1,.76.31,4.27,4.27,0,0,0,2.21.52c.1.59-.1,1-1.31.93-.12.28-.25.58-.37.88a.71.71,0,0,0,.09.81,3.87,3.87,0,0,1,.27.43,2,2,0,0,0,1.88-.45,2.63,2.63,0,0,1,.91-.43.54.54,0,0,1,.72.33,4.88,4.88,0,0,1,.43,1.25,7.8,7.8,0,0,1-.87,4.69,4.33,4.33,0,0,1-.5.71c-.19.22-.37.47-.72.43a.37.37,0,0,0-.14.07,1.82,1.82,0,0,1-1.26.32c-.13.32-.24.61-.37.88a4.57,4.57,0,0,1-1.68,1.78c-.87.57-1.77,1.11-2.68,1.67-1.12-.38-1.5-1.47-2.15-2.41a3.85,3.85,0,0,0-.11.42,9.09,9.09,0,0,1-1.14,3.87c-.61,1.15-1.29,2.27-1.91,3.42-.38.7-.7,1.45-1,2.19a1.25,1.25,0,0,0-.06.64,3.89,3.89,0,0,1-1.1,3.49,1.1,1.1,0,0,0-.23,1.21.79.79,0,0,0,.38.29,1.46,1.46,0,0,0,.48,0,10.09,10.09,0,0,1-.46,2.4,1,1,0,0,1-.3.41.66.66,0,0,0-.24.58,21.89,21.89,0,0,0,1.38,7.25.28.28,0,0,0,.2.2l-.15-1.12c0-.07-.07-.15-.05-.2s.1-.28.19-.3.25.07.32.16a.82.82,0,0,1,.13.38c.07.39.13.78.17,1.17a.5.5,0,0,1-.16.35,1.73,1.73,0,0,1-.4.26l.09.55H432c.11.42.21.8.32,1.17.28.91.53,1.81.84,2.7a5.47,5.47,0,0,0,1.06,1.82c.14.16.31.3.53.51,0-.31,0-.51.07-.71s.08-.39.34-.45.24-.3.18-.5a7.25,7.25,0,0,1,0-3.21,1.07,1.07,0,0,1,.07-.19c.55.11.82-.23.63-.77-.09-.22-.24-.41-.34-.63a2.91,2.91,0,0,1-.18-.64c0-.07.11-.2.2-.24s.19.07.23.14c.22.46.43.93.64,1.4,0,.06,0,.16.07.19a2.7,2.7,0,0,1,.81,1.4,5.52,5.52,0,0,0,1,1.32,4.94,4.94,0,0,1,.36.44c.05.07,0,.18,0,.27s-.24,0-.3,0a7,7,0,0,1-.52-.57l-.73-.86c-.38.13-.21.53-.42.71l.82,1a2.62,2.62,0,0,1,.24.34.53.53,0,0,1-.13.73.52.52,0,0,1-.74-.08c-.18-.18-.32-.41-.49-.59a3,3,0,0,0-.44-.3,1.86,1.86,0,0,1-.57,1.37c-.23.2-.12.81.13,1a8,8,0,0,1,2,2.61c.08.15.12.31,0,.41s-.33,0-.43-.14-.23-.43-.37-.63c-.3-.45-.61-.91-.94-1.34a5.69,5.69,0,0,0-.63-.57l-.11.07c0,.17.08.35.13.52a7.74,7.74,0,0,0,1,1.91c.4.56.78,1.13,1.19,1.68a1.43,1.43,0,0,0,.47.37c.18.1.39.14.57.24a.3.3,0,0,1,.1.25.26.26,0,0,1-.24.13c-.24,0-.48-.13-.74-.17.73.85,1,2,1.8,2.86.07-.39.11-.69.17-1,0-.06.08-.1.17-.2.05.14.1.24.13.35.16.43.29.88.49,1.29a1.43,1.43,0,0,0,1.2.81.93.93,0,0,0-.09-1c-.4-.59-.78-1.18-1.16-1.77a4.77,4.77,0,0,1-.29-.55c-.1-.19-.1-.37.12-.48s.31,0,.41.2l1.58,2.53a1,1,0,0,0,.32.31l1,.65.71.5a.68.68,0,0,0-.15-.73,4,4,0,0,0-.51-.5c-.23-.18-.48-.34-.72-.51s-.35-.24-.2-.45.35-.08.5,0c.4.31.83.61,1.2,1a1.37,1.37,0,0,1,.45,1.26,1.65,1.65,0,0,0,.46,1.31c.11.12.33.15.54.24a.66.66,0,0,1-.22.64,2.11,2.11,0,0,0-.35.38.54.54,0,0,0,.21.84c.19.11.36.29.63.2a.52.52,0,0,0,.08-.11,1.18,1.18,0,0,1,1.3-.71c.49,0,1,.12,1.48.19l.3,0c.08-.15.17-.28.24-.43a.88.88,0,0,1,1-.6,1.2,1.2,0,0,0,.32,0c0-.2,0-.39,0-.57s.05-.38.28-.43.34.1.4.37a1.65,1.65,0,0,1,0,.31.91.91,0,0,0,.27.65,1.77,1.77,0,0,1,.44,1.23,1.22,1.22,0,0,1-.39,1,1.11,1.11,0,0,0-.34,1.26c.3,0,.6,0,.9,0a.52.52,0,0,0,.3-.16.35.35,0,0,1,.5-.08.34.34,0,0,1,0,.54,1,1,0,0,0-.22.71.39.39,0,0,0,.32.41l.6.13.4.07a.91.91,0,0,1,.9.86l.77.1a4.14,4.14,0,0,1,.79.19,1,1,0,0,1,.35.35.27.27,0,0,1-.08.4.24.24,0,0,1-.36-.06c-.16-.23-.4-.23-.63-.29a4.57,4.57,0,0,0-2.35.27.75.75,0,0,0-.63.54.51.51,0,0,0,.15.06c.58,0,1.15.1,1.72,0,.08,0,.19.06.25.13s0,.19-.09.2c-.3.12-.24.33-.19.57.52.06,1,.11,1.53.2a5.64,5.64,0,0,1,4.34,3.34.77.77,0,0,0,.14.21,15.87,15.87,0,0,1,2.56,4.15c.53,1.12,1,2.25,1.57,3.36a10.9,10.9,0,0,0,1.9,2.8c.21.22.21.22.55.28,0-.12-.05-.23-.08-.34a3.66,3.66,0,0,1-.13-.44c0-.16-.07-.39.15-.43s.22.18.26.35c.09.38.19.75.33,1.25a4.52,4.52,0,0,0,1.95.9,1.1,1.1,0,0,0,1-.32,1.05,1.05,0,0,0-.32-.16,2,2,0,0,1-1.18-.56,2.35,2.35,0,0,0-1.14-.76c-.08,0-.13-.17-.19-.26.1-.07.23-.21.31-.18a2.85,2.85,0,0,1,.79.32c.23.15.41.37.63.54a7.59,7.59,0,0,0,.66.42c.1-.27-.05-.41-.13-.57s-.11-.3.06-.35a.36.36,0,0,1,.33.13,3.15,3.15,0,0,1,.29.65c.08.26.18.48.59.41-.08-.34-.15-.67-.22-1s-.13-.54-.2-.8,0-.36.19-.41.3.12.34.29c.14.59.27,1.17.42,1.76.05.18.14.35.24.61a3.39,3.39,0,0,0,.26-.37,2.66,2.66,0,0,1,1.77-1.38l.45-.11a1.15,1.15,0,0,0,.79-.53.31.31,0,0,1,.47-.14.35.35,0,0,1,.09.5,1.41,1.41,0,0,1-.76.66c-.31.12-.62.2-.93.29-.71.19-.76.24-.73,1,0,.08,0,.16,0,.28l.67-.12a.83.83,0,0,1,1,.49,1.08,1.08,0,0,0,.15.22.66.66,0,0,0,.14-.78c-.07-.21-.12-.44-.18-.66,1-.34,1.06-.33,1.89.48a3.43,3.43,0,0,0,.1-.57c0-.46,0-.92-.06-1.39l0-1.33a4.4,4.4,0,0,0-.05-.51,3.5,3.5,0,0,1-.07-.45.39.39,0,0,1,.36-.43.4.4,0,0,1,.44.27,1.11,1.11,0,0,1,.08.3.89.89,0,0,0,.4.62,2.4,2.4,0,0,1,.5.7c.45.78.76.92,1.67.7a.7.7,0,0,0-.28-.87,3.48,3.48,0,0,1-1.21-3.16l1.1.07c.36,0,.73,0,1.08.05a1.33,1.33,0,0,1,1.12.94c.06.16.11.33.17.5l.55,0a.32.32,0,0,1,.36.29.3.3,0,0,1-.28.37.66.66,0,0,0-.48.31,1.53,1.53,0,0,1-.57.33A.76.76,0,0,0,482,392a1.32,1.32,0,0,0,1.32.53,2.93,2.93,0,0,0,1.69-.92.92.92,0,0,0,.23-.71,3.94,3.94,0,0,0-.42-1.68c-.19-.4-.36-.81-.56-1.24a1.47,1.47,0,0,0,.95-.65c.17-.31.36-.61.6-1,.64,1.48,1,3,2.24,4,0-.2-.09-.39-.12-.59s0-.34.21-.34a.37.37,0,0,1,.29.22,1,1,0,0,0,.44.64c.15.1.21.34.3.53s.13.35.22.52.33.37.78.27a2.07,2.07,0,0,0-.4-1.09,2.63,2.63,0,0,1-.51-1.27,1.86,1.86,0,0,0-.19-.47c-.07-.19-.14-.39-.19-.58s0-.3.2-.3a.36.36,0,0,1,.26.19c.15.29.26.59.39.89a1,1,0,0,0,.11.2l.34,0a1,1,0,0,0,0-.17c-.12-.39-.26-.78-.37-1.18,0-.2-.13-.46.16-.57s.28.05.39.42.29,1,.44,1.48c.11.33.2.42.62.6,0-1.76-.93-3.12-1.82-4.54a1.84,1.84,0,0,0,.32-.06c.28-.09.35-.21.26-.51s-.23-.64-.35-1a2.07,2.07,0,0,0-1.9.45.44.44,0,0,0-.18.23c-.07.34-.31.46-.6.57s-.63.28-.94.42a3,3,0,0,1-.39.13c-.34.1-.54,0-.61-.18s.06-.35.42-.47a7.69,7.69,0,0,0,.72-.28c.25-.11.61-.2.69-.39a2.16,2.16,0,0,0,.13-1.15,9.22,9.22,0,0,0-.44-1.47c-.13-.37-.21-.71.19-1a4.89,4.89,0,0,0-.92-1.27l-1.54-.08a1,1,0,0,1-.3-.06c-.29-.09-.39-.22-.33-.43s.26-.23.46-.21c.37,0,.74.08,1.12.1.17,0,.35,0,.41-.22s.11-.43-.1-.61a4.47,4.47,0,0,1-.43-.44.67.67,0,0,1-.15-.32.25.25,0,0,1,.44-.21c.23.22.43.47.66.7a.77.77,0,0,1,.13.78,1.06,1.06,0,0,0,.35,1.1,2.75,2.75,0,0,1,.56.8,1,1,0,0,0,.66.58c.28.09.55.2.82.3a2.09,2.09,0,0,1,1.37,1.37l.06.14.08.1h.45c-.35-.48-.66-.94-1-1.37s-.72-.82-1.09-1.26c0-.19.18-.26.35-.1a8.23,8.23,0,0,1,.84.83c.34.41.63.86,1,1.28s.52.46,1,.18a1.2,1.2,0,0,1,.82-.21.56.56,0,0,0,.66-.53v-.05c.08-.39.19-.51.42-.47s.28.17.27.53c0,.15,0,.31,0,.46a.68.68,0,0,0,.25.54,9,9,0,0,1,.69.69.6.6,0,0,0,.59.22c.24-.06.28-.29.31-.49a2.09,2.09,0,0,1,0-.36c.05-.16.13-.32.22-.54.33.45.57.83.86,1.18a2.29,2.29,0,0,0,1.23.73c.44.11.89.18,1.35.27,0-.32-.4-.61.05-.86.31.26.37.76.94.83-.05-.15-.05-.28-.11-.34a.69.69,0,0,1-.11-1,1.28,1.28,0,0,0-.23-1.61,3.49,3.49,0,0,1-1-2.08.44.44,0,0,0-.07-.19l-.82-1.65a1.21,1.21,0,0,0-.84-.82l-.41.62a1.25,1.25,0,0,1-1,.64,7.67,7.67,0,0,0-.81.15.4.4,0,0,1-.31-.18c-.06-.16.09-.23.24-.26l1-.21a1.23,1.23,0,0,0,.82-1.1c0-.34-.11-.68-.17-1,0-.1-.05-.2-.06-.3s-.07-.37.17-.42.3.11.34.3.09.43.14.65l.11.37a2.26,2.26,0,0,1,1.59,1.59l.24.57a1.11,1.11,0,0,0,.67.73.76.76,0,0,1,.36.28.87.87,0,0,0,1,.26,5.19,5.19,0,0,0,1.78-.84,1.36,1.36,0,0,1-.28-1.17c.16-1.65.18-1.24-.81-2.41-.17-.2-.32-.4-.49-.61l-.93.55a1.42,1.42,0,0,1-1.16-.06.33.33,0,0,1-.1-.26c0-.08.11-.16.19-.21a.28.28,0,0,1,.2,0c.51.22.84-.12,1.26-.39a9.22,9.22,0,0,0-1.39-1.59c-.3-.2-.35-.42-.19-.64a.44.44,0,0,1,.68-.05,6,6,0,0,1,.86.81c.81.91,1.61,1.83,2.41,2.75,0,0,0,.06.06.07a4.64,4.64,0,0,1,1.5,1.39c.17.19.34.39.59.32,0-.32,0-.59.07-.86a.69.69,0,0,0-.17-.67,3.67,3.67,0,0,1-.4-.47.54.54,0,0,1,.09-.78.6.6,0,0,1,.76,0l.17.19c.31.34.31.34.88.24-.2-.32-.25-.71-.63-.9-.15-.07-.27-.2-.17-.37s.28-.12.44,0a3.68,3.68,0,0,0,.34.16.7.7,0,0,0-.23-.8c-.12-.1-.25-.18-.36-.29s-.26-.22-.25-.31c.05-.48-.32-.68-.59-.93a8.4,8.4,0,0,0-4.41-2.19l-.2,0c-.19,0-.33-.14-.29-.35a.3.3,0,0,1,.39-.24c.35.06.71.12,1.06.21a9.57,9.57,0,0,1,4.17,2.45c.19.19.37.37.71.22-.09-.18-.19-.35-.27-.53a5.62,5.62,0,0,1-.25-.56.58.58,0,0,1,.16-.62c.17-.18.39-.1.57,0a5.63,5.63,0,0,1,.72.48,1.44,1.44,0,0,0,1.24.34,1.16,1.16,0,0,0-.32-1.4,2.15,2.15,0,0,0-1.51-.49,1.89,1.89,0,0,1-.58-.14.3.3,0,0,1-.13-.25c0-.08.12-.2.19-.2a1.26,1.26,0,0,1,.58.08,1.24,1.24,0,0,0,.85.14v-.36c-.16,0-.31-.08-.45-.14s-.1-.15-.15-.22.16-.16.23-.15a5,5,0,0,1,.65.14c.19-.15.5-.23.29-.65l-1.81-.36c-.06,0-.17,0-.19,0-.23-.34-.62-.33-.94-.46a.69.69,0,0,1-.36-.39,1.1,1.1,0,0,0-.71-.67c-.83-.36-1.73-.46-2.57-.81a.57.57,0,0,0-.79.19,2.19,2.19,0,0,0,.27.13l2.16.67a1.23,1.23,0,0,1,.29.09.21.21,0,0,1,.08.17c0,.07-.09.16-.15.17a1.43,1.43,0,0,1-.41,0l-1.91-.58-.63-.21a.8.8,0,0,0,0,.22.93.93,0,0,1-.23.91c-.15.18-.32.35-.47.54l-.92,1.15c-.27-.12-.57-.29-.89-.4a1.23,1.23,0,0,0-.5,0l-2.42.49a4.77,4.77,0,0,1-2.09-.12,4.53,4.53,0,0,0-.91-.12c-.82,0-1.65,0-2.47,0-.23,0-.46-.08-.69-.1a.86.86,0,0,0-.35.06,8.86,8.86,0,0,1-3.35.39c-1.31-.08-2.6-.21-3.91-.3a8.6,8.6,0,0,0-3.6.37,9.79,9.79,0,0,0-.92.45,1.83,1.83,0,0,1-.28.14,8.17,8.17,0,0,1-5.88-.17,7.63,7.63,0,0,0-1.77-.5,4.24,4.24,0,0,1-2.38-1.13.69.69,0,0,0-.36-.18,7.16,7.16,0,0,1-1.88-.82l-2-1.09c-.26-.14-.36-.32-.28-.53a.4.4,0,0,1,.59-.24c.46.19.9.42,1.34.65.64.33,1.26.7,1.9,1a4.93,4.93,0,0,0,.76.21,2.8,2.8,0,0,1-.12-.53.37.37,0,0,1,.14-.29c.07,0,.28,0,.31,0,.24.44.61.41,1,.33.08,0,.18.1.27.16a1.65,1.65,0,0,1-.19.27s-.13,0-.19.06l-.18,0c-.15.23-.07.39.14.47.4.15.8.3,1.21.41s1.09.3,1.65.41a2.76,2.76,0,0,0,.86,0c.15,0,.28-.15.49-.27-.16-.09-.26-.12-.31-.19a2.11,2.11,0,0,1-.18-.33c.11-.05.23-.14.34-.13a1.05,1.05,0,0,1,.49.13,7.3,7.3,0,0,0,2.1.49,4.7,4.7,0,0,1,2,.55c.81-.24,1.56-.5,2.32-.68a8.12,8.12,0,0,1,2.51-.16c1.31.1,2.63.22,4,.34a9.49,9.49,0,0,0,2.66-.17c.12,0,.23-.08.43-.15a3.92,3.92,0,0,0-.42-.32,4.86,4.86,0,0,0-2-.56s-.08,0-.1,0l-.24-.2c.09-.07.17-.18.27-.18a1.83,1.83,0,0,1,.66,0c.62.18,1.23.4,1.88.61l.77-.49c.12.19.2.33.3.46.24.36.43.38.74.1a1,1,0,0,1,1.44-.15c.37.2.75.4,1.14.58a4.5,4.5,0,0,0,2.92.18l2-.43v-.38a2.84,2.84,0,0,1-.44-.15c-.07,0-.1-.15-.15-.22s.16-.15.24-.14a6.06,6.06,0,0,1,.67.13v-1.08c-.29-.05-.57-.1-.85-.17a8.65,8.65,0,0,1-3-1.43c-.69-.48-1.36-1-2-1.48a8.18,8.18,0,0,0-3-1.51l-.51-.08c-.3-.06-.48-.24-.45-.47s.22-.36.54-.34a4.48,4.48,0,0,1,1.83.48,21.41,21.41,0,0,1,2.13,1.23c1,.66,2,1.38,3,2.05a6,6,0,0,0,.91.47,4.16,4.16,0,0,0,4.26-.58c.32-.23.54-.86.31-1.14s-.58-.77-1.14-.77a11.9,11.9,0,0,1-1.34-.09,2,2,0,0,1-1.23-.58c-.22-.23-.26-.46-.1-.64a.41.41,0,0,1,.63,0,2.3,2.3,0,0,0,1.56.45c.05-.06.08-.08.09-.11.06-.66.08-.67.71-.41.14.06.29.1.44.15.18-.22.27-.4-.05-.54s-.26-.21-.13-.36.23-.08.35-.07a.68.68,0,0,1,.27.13c.38.26.47.26,1-.07l-.48-.19c-.17-.07-.33-.16-.27-.37s.23-.25.41-.19.59.23.95.38c.44-.43.81-1.08,1.56-1.31a2.74,2.74,0,0,1-.51-.15.33.33,0,0,1-.16-.27.34.34,0,0,1,.26-.18c.23,0,.46.09.7.13a1.33,1.33,0,0,0,.26-1c-.24-.08-.49-.14-.72-.24a1.39,1.39,0,0,1-.46-.33.42.42,0,0,1,0-.36.4.4,0,0,1,.36,0c.26.11.5.27.76.41.18-.45.18-.46-.14-.56-.07,0-.16,0-.2-.05s-.18-.19-.17-.27a.35.35,0,0,1,.26-.17,3.91,3.91,0,0,1,.66.1c.15-.27,0-.49-.05-.72a3.94,3.94,0,0,1-.14-.49.37.37,0,0,1,.17-.31.35.35,0,0,1,.33.14,4.33,4.33,0,0,1,.28.93,4.26,4.26,0,0,1,.11,1.12,5.61,5.61,0,0,1-.53,2.23.65.65,0,0,0-.07.34,1.61,1.61,0,0,1-.54,1.24c-.42.4-.88.76-1.32,1.15l-1.42,1.27a.58.58,0,0,0-.18.54,10.31,10.31,0,0,1,0,1.26l.58.38,1.17.73a.46.46,0,0,0,.19.08,2,2,0,0,1,1.15.46,1,1,0,0,0,.89.12,2.13,2.13,0,0,1,.61-.08,3.09,3.09,0,0,0,1.27-.28,1.53,1.53,0,0,0,.52-.31.8.8,0,0,0,.14-1.11.79.79,0,0,1-.15-.38c.32.1.64.18,1,.29s.7.28,1.06.39a1.11,1.11,0,0,0,1.26-.36,1.16,1.16,0,0,0-.93-.5,1.1,1.1,0,0,1-.85-.29.4.4,0,0,1-.1-.35c.07-.16.23-.11.35,0a1,1,0,0,0,.85.2l0-.47-.53-.07a.27.27,0,0,1-.24-.34.53.53,0,0,1,.3-.29,1.76,1.76,0,0,1,.46,0c.1,0,.2-.06.39-.12-.85-.28-1.59-.53-2.35-.76-.36-.11-.73-.18-1.1-.26s-.44-.22-.42-.43a.42.42,0,0,1,.53-.35c.36.06.71.15,1.06.24l.59.15a.85.85,0,0,0,.09-.15c.2-.55.38-.62.92-.35.21.1.41.24.63.34a3.27,3.27,0,0,0,.53.17c.18-.37-.09-.62-.14-.92a1.48,1.48,0,0,1,1.22.28,1.75,1.75,0,0,0,1.43.29c0-.3-.17-.43-.36-.56a1.08,1.08,0,0,1-.5-.63c-.07-.3.07-.49.37-.42a2.33,2.33,0,0,1,.65.28c.18.1.35.19.47-.07a1.63,1.63,0,0,0-.9-.77,12.53,12.53,0,0,1-1.39-.88.71.71,0,0,0-.66-.15,2,2,0,0,1-1.31,0c-.1,0-.23.05-.35.05a10.65,10.65,0,0,1-1.13,0,1,1,0,0,1-.41-.19.44.44,0,0,1-.2-.61.4.4,0,0,1,.59-.1,1.32,1.32,0,0,0,.95.12,1,1,0,0,0,.25-.13l-.44-.23a6.08,6.08,0,0,1-.66-.4c-.15-.1-.27-.24-.14-.44s.3-.16.49-.06.59.28.87.43a.65.65,0,0,0,.71,0l0-.33-.16-.06c-.3-.06-.61-.12-.91-.2a.47.47,0,0,1-.46-.49c.1,0,.21-.08.3-.06l1.48.38.06-.12a4.59,4.59,0,0,0-.87-.67,9.4,9.4,0,0,0-1.5-.49c-.19-.05-.38-.08-.4-.31s.16-.35.39-.38l.21,0a.86.86,0,0,1-.09-.35.43.43,0,0,1,.19-.31.33.33,0,0,1,.3.08c.21.47.7.44,1.05.64a3.29,3.29,0,0,0,1.44.27c-.15-.92-.51-1.35-1.19-1.49-.17.15-.31.38-.5.42a1.68,1.68,0,0,1-.8,0,3.93,3.93,0,0,1-1.69-1.05c-.25-.25-.32-.64-.61-.88-.06-.05,0-.29,0-.36s.31-.07.35,0c.35.46.82.33,1.29.34l.51-.89c-.42-.47-.23-.86.28-1.18a1.89,1.89,0,0,0-1-.37.75.75,0,0,1-.72-.83,1.42,1.42,0,0,0,0-.16,1.28,1.28,0,0,1-.35-.18.54.54,0,0,1-.14-.35c0-.18.18-.23.35-.21h.05c.46.3,1,.12,1.44.12.07,0,.16,0,.21,0s.23.16.26.27a.27.27,0,0,1-.22.35,6.44,6.44,0,0,0-.71.15c.58.16,1.1.56,1.83.43,0-.31,0-.59,0-.88a.39.39,0,0,0-.35-.43c-.55-.11-1.11-.23-1.66-.31s-1-.08-1.54-.13a3.26,3.26,0,0,1-.45-.09.53.53,0,0,1,.22-.72c.18-.12.38-.25.34-.56a1,1,0,0,1-.28.06,1.92,1.92,0,0,1-.32-.09c0-.09.09-.19.14-.29a.44.44,0,0,1,.08-.11,1.27,1.27,0,0,0-.82-.6c-.29-.1-.59-.17-.89-.26a1.48,1.48,0,0,1-.52-.2,2.4,2.4,0,0,0-1.24-.48.45.45,0,0,1-.45-.57c.05-.29.28-.39.68-.32a.15.15,0,0,0,.16-.06,3.81,3.81,0,0,1-.45-.13.24.24,0,0,1-.13-.18.3.3,0,0,1,.15-.18.52.52,0,0,1,.25,0l1.29.24a2.08,2.08,0,0,0,.61,0c.62-.07.64-.1.8-.72.09-.38.19-.76.29-1.15a1.94,1.94,0,0,0-.08-1.3c-.17-.37-.08-.67.2-.8a.6.6,0,0,1,.81.33,2.84,2.84,0,0,1,.22,2c-.08.39-.23.76-.31,1.15s-.13.77-.19,1.16a7.09,7.09,0,0,0,2.08.73,9.41,9.41,0,0,0,4.19,0,1.9,1.9,0,0,0,1.5-1.39,7.72,7.72,0,0,0,.28-1.72c.06-1,0-1-.8-1.47l-1.34-.77a4.22,4.22,0,0,0-1.85-.58c-.05,0-.12,0-.15,0s-.17-.15-.16-.21a.27.27,0,0,1,.18-.19,4.2,4.2,0,0,1,.87.07,5.57,5.57,0,0,1,1.74.74l1.63,1c.19-.17.35-.35.54-.49a4.88,4.88,0,0,1,.73-.44.26.26,0,0,1,.38.16.51.51,0,0,1-.12.4c-.36.32-.75.6-1.09.87,0,.63,0,1.22-.13,1.79a5.69,5.69,0,0,1-.33,1.29,2.3,2.3,0,0,1-1.24,1.32.56.56,0,0,0-.38.37.76.76,0,0,1-.56.48c-.27.08-.54.13-.8.2s-.4.11-.59.18a.59.59,0,0,0-.33.92,1,1,0,0,1,.14.93.86.86,0,0,0,0,.35,2.77,2.77,0,0,1-.3,1.85.49.49,0,0,0-.06.23.86.86,0,0,1-.55,1,2,2,0,0,0-.9,1.06c.19.17.35.33.54.48a.59.59,0,0,0,.26.1c.31.09.64.15.94.26a1.16,1.16,0,0,1,.75.77c.16.52.43,1,.63,1.52a1.49,1.49,0,0,1-.09,1.39,3.29,3.29,0,0,0-.36,1.54,8.41,8.41,0,0,0,2,1.25c.37-.1.62-.19.88-.24a7.64,7.64,0,0,1,.82-.1.85.85,0,0,0,.65-.32,1.69,1.69,0,0,1-.46-1.65,5.46,5.46,0,0,0,0-.56,2,2,0,0,0-.37-1.48l.38,0a14.69,14.69,0,0,0,1.64-.15A4,4,0,0,0,521,349c-.4-.22-.22-.86-.78-1a2.31,2.31,0,0,1-2.5.92,2.21,2.21,0,0,1-1.35-.38c0-.05-.19,0-.29,0s-.5.11-.75.15a.55.55,0,0,1-.31,0c-.11,0-.26-.14-.28-.24s.1-.27.27-.31c.47-.1.94-.16,1.4-.29a14.13,14.13,0,0,0,2.14-.71A39.51,39.51,0,0,1,525,345c1.14-.32,2.25-.72,3.36-1.13a7.19,7.19,0,0,0,2.32-1.41,4.19,4.19,0,0,0,1.28-2.07,7,7,0,0,0-.79-.37.59.59,0,0,0-.43,0l-1.74.78-2.14,1a8.45,8.45,0,0,0-.78-.44.77.77,0,0,0-.4-.06,2.74,2.74,0,0,1-1.47-.14c-.06,0-.15,0-.25,0,.08.38.74.33.57.86a1,1,0,0,1-.24,0,1.45,1.45,0,0,0-1,.36,1.6,1.6,0,0,1-1.32.56c-.08,0-.18.08-.28.12a2.7,2.7,0,0,1-.56.24,8.19,8.19,0,0,0-1.75.66,3.64,3.64,0,0,1-1.9.25l-.13-.85-.52.12a3,3,0,0,1,1.06-1.56,6,6,0,0,1,2.34-1,6.62,6.62,0,0,0,1.75-.55,1.58,1.58,0,0,1,1.11-.18,2.62,2.62,0,0,0,1.27-.15c1.21-.47,2.43-.92,3.64-1.41.71-.3,1.42-.62,2.1-1s1.49-.84,2.23-1.27a1,1,0,0,0,.19-.16c.71-.75,1.43-1.49,2.13-2.24a10.19,10.19,0,0,0,.8-.94,3.63,3.63,0,0,0,.33-.75c.09-.2.14-.42.24-.62a.46.46,0,0,1,.58-.21c.2.08.39.33.3.54-.4.93-.43,2-.75,2.92a2.67,2.67,0,0,1-1.16,1.42,4.88,4.88,0,0,1-1.29.6,4.84,4.84,0,0,0-1.44.66c-.24.15-.51.28-.78.43V339l.5.23a3.14,3.14,0,0,1,1.34,1.16c.33.5.67,1,1,1.49a.78.78,0,0,1,0,1,8.08,8.08,0,0,1-1.81,1.74l-2.31,1.65a6.71,6.71,0,0,0-.7.6,3.9,3.9,0,0,0-1.15,4.18c0,.11.06.23.1.34.26.78.25.85-.39,1.39-.23.2-.49.37-.74.56s-.46.36-.67.56a1.07,1.07,0,0,0-.38,1.1,2.41,2.41,0,0,1-.66,2.08,5.32,5.32,0,0,1-1.88,1.34c-.76.34-1.55.62-2.34.93l-.4.14c-.32.9-.56,1.77-.93,2.57a8.39,8.39,0,0,1-5.37,4.77,2.4,2.4,0,0,1-1.71,0,1.37,1.37,0,0,0-.44-.12c-.44-.06-.65.06-.92.57H513a5.82,5.82,0,0,0,.34,2.1c.14.61.07.77-.48,1.09s-.89.45-1.34.67a2.91,2.91,0,0,0-.71.45l.52.07c.59.08.76.24.91.79a2.69,2.69,0,0,1-.7,2.84,12.41,12.41,0,0,0-3,5c-.27.77-.59,1.54-.89,2.3a7.27,7.27,0,0,1-.35.75,4,4,0,0,1-2.34,2.1v.83c-.07.05-.1.1-.15.12a13.84,13.84,0,0,0-3.87,2.79c-.51.48-1,1-1.52,1.47a1.13,1.13,0,0,1-.85.37,4.89,4.89,0,0,0-2.19.51,5.93,5.93,0,0,0-1.49,1.1.82.82,0,0,1-.47.26,13.46,13.46,0,0,0-4.82,1.53c-.79.42-1.56.87-2.35,1.28s-1.48.73-2.22,1.08c-.2.1-.35.18-.4.42-.47,2-1.26,3.95-1.89,5.93-.39,1.26-.69,2.55-1.06,3.82a1.28,1.28,0,0,0,.37,1.31,3.23,3.23,0,0,0,1.33.85c.65.22,1.31.4,2,.63a10.34,10.34,0,0,1,1.43.56,3.92,3.92,0,0,1,.87.71,2.23,2.23,0,0,0,.56.5.4.4,0,0,1,.15.54.35.35,0,0,1-.45.24,4.26,4.26,0,0,0-1.33-.07,13.23,13.23,0,0,1-3.12-.59,25.77,25.77,0,0,0-3.55-.84,6,6,0,0,0-3.6.59l-.29.18a2.81,2.81,0,0,0,.72.94c.42.4.86.79,1.29,1.18a3.7,3.7,0,0,1,.94,1.28,2.11,2.11,0,0,1,.1.3,1.87,1.87,0,0,1-1.17-.17c-.33-.14-.67-.26-1-.37a1,1,0,0,0-.9.1.8.8,0,0,1-1-.11A6.71,6.71,0,0,0,470,413.5a20.74,20.74,0,0,0-5.63,1.55l-2.11.83a1.41,1.41,0,0,0-.37.18,2.85,2.85,0,0,1-1.44.49,1,1,0,0,0-.43.12,1.71,1.71,0,0,1-1.27.31,1.54,1.54,0,0,0-1.37.4.61.61,0,0,1-.51.12.45.45,0,0,1-.21-.8,2,2,0,0,0,.78-1.37,5.7,5.7,0,0,1,.37-.9l-2.3.29a24.9,24.9,0,0,1-4.23,0c-1.8-.09-3.59-.24-5.39-.37l-.15,0a2.07,2.07,0,0,1,2.44-1.85l1.44-1.14-1.23-.85c-.39-.27-.41-.57-.07-.88l.21-.15a.42.42,0,0,0,.14-.59l-.06-.14c-.08-.19-.2-.41.07-.53s.34.12.4.3a1.72,1.72,0,0,0,.62.77,3.46,3.46,0,0,1,.72.92,6.25,6.25,0,0,0,1.35,1.63,2.29,2.29,0,0,0,.23.16,3.47,3.47,0,0,1,1.57-.13,4.59,4.59,0,0,0,1.56-.16,4.85,4.85,0,0,1,2-.15,1.39,1.39,0,0,0,1.16-.19,4.31,4.31,0,0,1,1-.43l.06-.3a1.61,1.61,0,0,1,1.39-1.4,7,7,0,0,1,1.58-.08c.53,0,1.06.16,1.58.2a11,11,0,0,0,1.28-.05.19.19,0,0,0,.1,0c.63-.58,1.53-.68,2.19-1.21a.9.9,0,0,0,.27-.28c.91-2.22,1.83-4.44,2.7-6.68a29.71,29.71,0,0,0,1.26-4.45c0-.1,0-.2,0-.36l-1.36-.28c-.66-.14-1.32-.26-2-.43a3.72,3.72,0,0,1-1.07-.49,1.86,1.86,0,0,1-.71-.71,3.78,3.78,0,0,0-.74-1,14.24,14.24,0,0,1-2.31-3.58c-.64-1.33-1.24-2.68-1.88-4a12.45,12.45,0,0,0-2.31-3.26,5.92,5.92,0,0,0-2.84-1.59c-1.06-.29-2.14-.52-3.21-.72a14,14,0,0,1-4.91-1.93L446,376.71a16.23,16.23,0,0,0-2.86-1.5,1.23,1.23,0,0,1-.49-.35c-1.05-1.23-2.08-2.47-3.12-3.71-.55-.66-1.08-1.34-1.67-1.95a5.06,5.06,0,0,0-1.36-1.09,4.37,4.37,0,0,1-2.3-3.06c-.25-1-.44-2-.65-3a34.3,34.3,0,0,0-1.88-5.87c-.49-1.18-1-2.34-1.46-3.52a30.22,30.22,0,0,1-2.15-7.91q-.09-.82-.12-1.65a7.54,7.54,0,0,0-.18-1.63,4.19,4.19,0,0,1,.08-2c.24-1.05.43-2.11.6-3.18a8.34,8.34,0,0,1,.47-1.52c.22-.58.48-1.14.69-1.71a22,22,0,0,1,1.68-3.36,23,23,0,0,0,1.75-3.33,7.69,7.69,0,0,0,.54-3,.42.42,0,0,0-.3-.46,4.17,4.17,0,0,0-2.19-.48c-.13-.37-.25-.72-.38-1.07-.24-.68-.49-1.35-.71-2-.1-.28-.27-.34-.55-.33a5.16,5.16,0,0,0-2.21.62l-1.15.62a3.06,3.06,0,0,1-.23-.49,2.54,2.54,0,0,1,0-1.42,1.07,1.07,0,0,0,0-.25,3.94,3.94,0,0,1,.68-2.34c.66-1,1.39-1.92,2.1-2.86a3.6,3.6,0,0,0,.71-1.9,2.84,2.84,0,0,0-1.25-2.81c-.05,0-.07-.08-.14-.16a8.59,8.59,0,0,1,.45-.84,3.16,3.16,0,0,0,.53-2.2c0-.46.11-.59.56-.48s.6.2.88-.13c0-.1-.09-.22-.13-.35a1.36,1.36,0,0,1,1.39-1.92c.15,0,.3,0,.45,0a2,2,0,0,0,.61,1.91.33.33,0,0,0,.51,0,2,2,0,0,0-.47-1Zm45.11,95.14c-.15.35-.26.66-.39.95q-1.06,2.26-2.14,4.51a22.79,22.79,0,0,0-1.76,4.66c-.15.62-.26,1.26-.41,2,.26,0,.43-.05.59-.09a6.21,6.21,0,0,0,4.2-3.2,10.85,10.85,0,0,0,1.24-3.31c.35-1.69.63-3.4.93-5.1.08-.45.13-.91.21-1.43a1.13,1.13,0,0,0-1.15.37A2.51,2.51,0,0,1,477.16,397.29Zm17.54-13.77c-.33-.33-.57-.59-.84-.81s-.38-.12-.44.12-.34.44-.65.44h-.36c-.57.06-.65.16-.59.72a4,4,0,0,0,.82,2.08c.56.71,1.14,1.41,1.75,2.16l1.4-.47c0-.3-.28-.6-.11-1l.75.12c-.28-.61-.76-1.08-.6-1.75-.27-.11-.49-.19-.71-.29a4.35,4.35,0,0,1-.63-.35,3.07,3.07,0,0,1-.59-.49c-.16-.18-.09-.37.15-.43A5.33,5.33,0,0,1,494.7,383.52Zm-56.48-78.81.54.23c.44.17.86.36,1,.88a.34.34,0,0,0,.31.15,1,1,0,0,0,.44-.31c.18-.21.35-.39.64-.34s.37-.15.43-.35a1,1,0,0,0-.75-1.07l-.86-.13A1.45,1.45,0,0,0,438.22,304.71Zm10.9,67.4a1.93,1.93,0,0,0,1.68.56c.83-.79.92-1.4.3-2l-1,.09A2.9,2.9,0,0,1,449.12,372.11Zm-6.75-4.75c-.33.87.33,1.38.59,2s.85.66,1.39.84l.31-.55a1.63,1.63,0,0,1-.19-.33,1.5,1.5,0,0,0-1-1.07,2.24,2.24,0,0,1-.52-.41Zm21.78,42.73c0,.38,0,.69,0,1s.13.44.39.42a10.88,10.88,0,0,0,1.26-.17c.38-.08.49-.25.46-.56a.72.72,0,0,0-.6-.73C465.18,410,464.71,410.07,464.15,410.09ZM447,372.68c-.08.83.86,1.31,2.09,1.16l.31-.54c-.29-.22-.57-.39-.81-.6a.88.88,0,0,0-1.08-.17A3.09,3.09,0,0,1,447,372.68Zm14.75,39.82a1.47,1.47,0,0,0,.07-1.5c-.33-.09-.52.17-.77.24a4.76,4.76,0,0,1-.9.1l.16,1.16Zm6.14-1.86c.32-.23.54-.37.73-.53.6-.53.52-1-.24-1.22a.67.67,0,0,0-.48,0,5.67,5.67,0,0,0-.72.46c.12.13.19.26.3.31A.76.76,0,0,1,467.86,410.64ZM449.11,413a6.94,6.94,0,0,1,.82.12,3.15,3.15,0,0,1,.47.2c.45.19.62.11.78-.33a1.76,1.76,0,0,0,.06-.25,1.11,1.11,0,0,0-1.36-.46A.86.86,0,0,0,449.11,413Zm6.61-.68-.12.89c.48,0,.92,0,1.36-.08s.51-.22.54-.74A3.68,3.68,0,0,0,455.72,412.28Zm9.29.8a1.63,1.63,0,0,0-1.69-.53.52.52,0,0,0-.34.25,2.39,2.39,0,0,0-.17.61,1.21,1.21,0,0,0,1.08-.18c.43-.2.44-.19.8.13,0,0,.06,0,.13,0ZM501.13,381a.53.53,0,0,0-.2-.62c-.11-.08-.26-.15-.31-.26-.2-.5-.75-.59-1.07-1a.94.94,0,0,0,.07.56c.19.36.42.7.64,1A.66.66,0,0,0,501.13,381ZM436.9,323.07a4.57,4.57,0,0,0-.13-1.05,10.13,10.13,0,0,1,.07-1.17c-.18.08-.38.11-.43.21a2.63,2.63,0,0,0-.33.95C436.06,322.73,436.33,323,436.9,323.07ZM458,416.12a3.3,3.3,0,0,0,1.37,0c.14-.47-.18-.74-.34-1.06h-.68ZM434.85,307.93a.86.86,0,0,0-1.27.7.47.47,0,0,0,.15.35.39.39,0,0,0,.35-.06,2.55,2.55,0,0,0,.45-.42C434.67,308.35,434.9,308.24,434.85,307.93Zm26.06,107.28v-.84c-.34,0-.65.05-.94.11a.38.38,0,0,0-.23.29.59.59,0,0,0,.69.55A3.38,3.38,0,0,0,460.91,415.21Zm-2.48-3.12c.25.22.44.4.66.56s.35.19.38.16a1,1,0,0,0,.21-.47,4.34,4.34,0,0,0-.13-.73A3.22,3.22,0,0,0,458.43,412.09Zm62.66-70.47.07.07-.63,1,.05.06,1.14-.49c-.15-.37.34-.56.24-1a1.79,1.79,0,0,0-.32.09Zm-83.21-37.49c-.22-.21-.46-.29-.64-.12a1.64,1.64,0,0,0-.35.6.52.52,0,0,0,.16.64A1.86,1.86,0,0,0,437.88,304.13Zm1.6-1.88a1,1,0,0,0,1.38,1c-.18-.2-.38-.4-.56-.62A.8.8,0,0,0,439.48,302.25Zm67.23,63.33,1.88.45c.09-.43.05-.5-.3-.54h-.36c-.21,0-.41.06-.61-.14S506.88,365.33,506.71,365.58Zm-34.23,45.75c-.05.45,0,.56.36.58s.53,0,.8,0C473.49,411.32,473.25,411.22,472.48,411.33Zm-18.28,1.79c.72-.09.8-.17.75-.76C454.14,412.21,454,412.48,454.2,413.12Zm-11.43-94.88a.82.82,0,0,0-.83-.41c-.29.5-.29.5-.18.83Zm69.68,33.88c.25-.3.2-.6,0-.74a1.2,1.2,0,0,0-1-.07Zm-59.9,60.46,0,.52h.87l0-.52ZM434.74,321.8l-.67-.83c-.24.1-.28.26-.2.43A.68.68,0,0,0,434.74,321.8Zm27.93,89.48c.13,0,.23,0,.33,0l.34-.09c0-.11,0-.2,0-.28a1.08,1.08,0,0,0,0-.19C462.62,410.64,462.55,410.7,462.67,411.28Zm-13.43-36.47-.06.91.59.13A1.89,1.89,0,0,0,449.24,374.81Zm-6.77-53.75c-.26-.45-.26-.45-.75-.36C441.71,321.26,441.85,321.33,442.47,321.06Zm76.14,34.79c.21.18.34.34.58.24a.31.31,0,0,0,.2-.41C519.12,355.53,518.9,355.66,518.61,355.85ZM507,364.72v-.14h-.54c-.18,0-.39,0-.52.28C506.39,364.89,506.74,365,507,364.72Zm-73.12-62.08c.27.22.49.25.67.11s.12-.28,0-.45ZM442,370.72l.36.3c.24-.48.23-.55,0-.78ZM465.84,412l0-.11a3.41,3.41,0,0,0-.54.1c-.27.08-.28.19,0,.44Zm-33-92.9c-.26.3-.23.46.16.82C433.26,319.58,433,319.38,432.87,319.11Zm4-6.36c0-.21,0-.37-.22-.48l-.32.4Z"/><path class="cls-1" d="M437.53,418.54c-.33,0-.59-.06-.84-.11a.41.41,0,0,0-.52.3.77.77,0,0,0,.05.79,4.34,4.34,0,0,0,1.37,1.49.53.53,0,0,1,.27.69.54.54,0,0,1-.69.29,1.56,1.56,0,0,1-.37-.17,1.2,1.2,0,0,0-.82-.23.84.84,0,0,1-.78-.41c-.12-.17-.22-.35-.33-.53a1.22,1.22,0,0,0-.64-.6,2.82,2.82,0,0,1-.39.29,2.6,2.6,0,0,1-.86.3,11.16,11.16,0,0,0-3.29.54,1.13,1.13,0,0,1-.27,0l.37-1.1-1.16-.44a.73.73,0,0,1-1,0c-.3-.2-.58-.42-.88-.62l-.52-.34c0,.25,0,.37.05.5a5.2,5.2,0,0,1,.09,1,1,1,0,0,1-1.21.88,15.17,15.17,0,0,1-2.28-.74c-.72-.31-.88-.85-.67-1.83l-1.1-.06c.16-.66.31-1.29.49-1.9a1.43,1.43,0,0,1,.36-.62,3.21,3.21,0,0,0,.67-1.16,1.16,1.16,0,0,1,0-1.43c.26-.42.46-.87.7-1.35.13.09.31.2.49.34a1.76,1.76,0,0,0,2.18.23v1a6.85,6.85,0,0,1,2.09,2.77,4.47,4.47,0,0,1,.65-.17,1.68,1.68,0,0,0,1.41-1.18,2.42,2.42,0,0,1,.36-.56.4.4,0,0,1,.59-.09.38.38,0,0,1,0,.55l-.93,1.48a.38.38,0,0,0,.2.61,5.33,5.33,0,0,0,3.14,0,4.09,4.09,0,0,0,.59-.3.47.47,0,0,0,.2-.22,2.6,2.6,0,0,0,0-1.72c-.14-.4-.31-.51-.82-.56a4.49,4.49,0,0,1,0,.64.85.85,0,0,1-.2.45.4.4,0,0,1-.67-.3,6.1,6.1,0,0,1,.14-1.27.49.49,0,0,1,.26-.27,1.37,1.37,0,0,1,1.86.59,3.51,3.51,0,0,1,.34,2.3c0,.15-.06.3-.09.45-.14.6.05.84.67.82l.19,0c.21-.51.42-1,.61-1.52a.73.73,0,0,0,0-.69c-.92-1.55-1.81-3.12-2.74-4.66a5.22,5.22,0,0,0-1.43-1.67,6.28,6.28,0,0,0-.78-.48c-.19-.11-.41-.17-.61-.27a1.17,1.17,0,0,1-.63-1.52c.21-.11.4-.22.6-.3a.78.78,0,0,1,.34,0,2.11,2.11,0,0,1,1.72,1.31,11.4,11.4,0,0,0,1.18,1.85c.69,1,1.32,2.09,2,3.15.36.59.68,1.19,1,1.79s.3.53,1,.43a1.3,1.3,0,0,0,0-.44,5.46,5.46,0,0,0-.75-1.84,9.31,9.31,0,0,1-.74-1.11,1.77,1.77,0,0,1-.19-.63.31.31,0,0,1,.18-.25.33.33,0,0,1,.3.11,8.14,8.14,0,0,0,1.19,2q.12.21.24.45h.66c-.08-.26-.16-.48-.23-.71a7.06,7.06,0,0,1-.33-1.08,2,2,0,0,1,0-.95,1.6,1.6,0,0,0,0-1.1c-.13-.44-.29-.88-.39-1.33a2.91,2.91,0,0,0-.3-1.06,1.43,1.43,0,0,1-.07-1.2.48.48,0,0,1,.37-.39c.2,0,.29.1.4.25s.39.43.58.65.31.6,0,.91a.57.57,0,0,0-.15.61l.16.64c.11.44.23.87.3,1.3s.19.37.48.33v-1a1.66,1.66,0,0,1,.44-1.23.7.7,0,0,1,.49-.19.44.44,0,0,1,.31.7,1.62,1.62,0,0,0-.2.93c0,.35,0,.69,0,1V411l.9-.69c0,.22,0,.35,0,.48,0,.89,0,1.78,0,2.68,0,.21,0,.37.33.37a4.93,4.93,0,0,0,.73-2.11c0-.1,0-.21,0-.31a.46.46,0,0,1,.49-.42.47.47,0,0,1,.41.51v.05a6.32,6.32,0,0,1-1.27,3.3,4,4,0,0,1-.6-.14.6.6,0,0,0-.75.27,1.41,1.41,0,0,0-.24.51,3.5,3.5,0,0,0,0,1.64,1.8,1.8,0,0,0,1.18-.2l1.12-.42,1,1.62-.57-.12c-.43-.12-.47-.09-.63.42a1.9,1.9,0,0,0,1.24.36.58.58,0,0,0,.62-.74c-.07-.47-.17-.94-.26-1.41s0-.55.26-.63.47,0,.56.38.17.87.27,1.31a1.26,1.26,0,0,0,.19.51,2,2,0,0,1,.43,1.09c0,.56.37.75.86.89a1.55,1.55,0,0,0,.15-.79c0-.53,0-1.07,0-1.6a4.33,4.33,0,0,1,.16-.86.47.47,0,0,1,.53-.37c.26.06.38.27.36.6,0,.63-.06,1.26-.11,1.9a9,9,0,0,1-.16,1.37,1,1,0,0,1-1.33.68c-.24-.09-.45-.24-.68-.35s-.18-.07-.29-.12c-.14.46.33.74.25,1.18-.38.3-.75.15-1.11-.09-.2-.12-.38-.26-.6-.41-.27.45,0,.78.11,1.13-.68.2-1.11-.28-1.65-.52-.14.16-.35.26-.26.54,0,.06-.08.18-.16.23a1,1,0,0,1-1.24.12,3.69,3.69,0,0,1-.84-.68c-.41-.43-.77-.92-1.17-1.37s-.54-.71-1.05-.77c-.18,0-.19-.21,0-.34.3-.27.27-.5-.11-.65S437.58,418.89,437.53,418.54Zm-13,1.3a1.18,1.18,0,0,0,.82.22,1.88,1.88,0,0,0-.22-1.05.93.93,0,0,1-.16-.37.84.84,0,0,0-.26-.54l-.81-1a.3.3,0,0,1,0-.46.32.32,0,0,1,.5.05c.08.09.15.19.22.28l.57.67a.32.32,0,0,0,.45.1c0-.09,0-.19,0-.26a3.76,3.76,0,0,0-.69-1.29,12.64,12.64,0,0,1-.94-1.11l-.89-.37c-.14.3-.29.6-.42.92a2,2,0,0,0-.14.53,2,2,0,0,0,.58,1.64c.28.31.58.59.87.88A1.3,1.3,0,0,1,424.57,419.84ZM437,417.48c1.05,0,2,0,3,0a1.78,1.78,0,0,0,.52-.18.77.77,0,0,0-.6-1c-.17-.06-.33-.12-.49-.16a1.72,1.72,0,0,1-.91-.43.43.43,0,0,0-.27-.1h-.61Zm-7.27,1.88a13.6,13.6,0,0,1,.15-2l-.4-.73c-.13,0-.23,0-.33.06a2.11,2.11,0,0,1-1.24.2c-.11,0-.25.12-.42.21l.75.92a2.86,2.86,0,0,1,.46.67C428.86,419.22,429.26,419.29,429.73,419.36Zm-5-4.58,1.43,1.6c.41-.31.74.08,1.19.05-.08-.2-.13-.35-.2-.5a5.61,5.61,0,0,0-1.32-1.63.5.5,0,0,0-.8,0A3.85,3.85,0,0,0,424.75,414.78Zm18,6.57c-.22-.11-.12-.54-.48-.43a.4.4,0,0,0-.26.26.6.6,0,0,0,.4.64Z"/><path class="cls-1" d="M530.4,310.15c4.26.05,5.9,4.05,3.57,7.29l.59-.09a3.24,3.24,0,0,1,1.32-.12,11.37,11.37,0,0,0,1.16-.05,5.09,5.09,0,0,0,1.56-.09,1.13,1.13,0,0,1,.41,0,.42.42,0,0,1,.4.41.38.38,0,0,1-.37.41,4.46,4.46,0,0,1-.51.07.78.78,0,0,0-.83.75c.31,0,.61,0,.92,0,.56,0,.71.23.5.74a1.74,1.74,0,0,1-.94,1,8.74,8.74,0,0,1-1.3.46c-.53.15-1.07.25-1.67.38a2.13,2.13,0,0,0,.3.53,2.87,2.87,0,0,0,2.24,1.08,6.48,6.48,0,0,1,1.09.11l-.79,1.05a8.34,8.34,0,0,1-.72.94,3,3,0,0,1-.86.53,3.28,3.28,0,0,0-1.22.62.25.25,0,0,1-.18.08,3.38,3.38,0,0,0-1.74.89,5.84,5.84,0,0,1-.53.33.82.82,0,0,0-.46.63H533a17.8,17.8,0,0,1,2.2.16,1.3,1.3,0,0,1,1.13,1.38s0,.06-.07.08c-1.46.64-2.93,1.26-4.38,1.91a25.5,25.5,0,0,1-3.55,1.37l-.4.08c.05-.22.08-.38.12-.54.12-.46-.14-.75-.59-.61a1.09,1.09,0,0,0-.52.38,2.38,2.38,0,0,0-.29.6c-.36.88-.73.94-1.37.87h-.22l-.39.6a1.82,1.82,0,0,0-.08.19c.31.18.52,0,.78-.19a.67.67,0,0,1-.2.58c-.28.46-.29.46.12.84a.54.54,0,0,1,.06.13l-.88.22c-.18.05-.37.08-.54.14-.61.2-.64.38-.13.86a28,28,0,0,1-3.12,1,3.06,3.06,0,0,0-1.25.71,5,5,0,0,1,.59.08c.17,0,.3.15.24.32a.38.38,0,0,1-.28.23c-.34,0-.68,0-1,0a2.37,2.37,0,0,0-1.32.51c-.07.05-.13.12-.2.16a.42.42,0,0,1-.56-.07.36.36,0,0,1,.06-.55,5.4,5.4,0,0,1,.91-.58,1.46,1.46,0,0,0,.83-.68c.13-.26.47-.43.73-.62s.72-.47,1-.75a21.26,21.26,0,0,1,3-2.41.5.5,0,0,0,.22-.21c.42-.73.83-1.46,1.22-2.2a1.28,1.28,0,0,0,.06-1.19,1.27,1.27,0,0,0-1.34-.6l-.1,0c-.46.15-.72.08-.86-.25s0-.61.44-.81a1.5,1.5,0,0,1,1.1-.1,1.07,1.07,0,0,0,.89,0,.64.64,0,0,1,.8.17,6.15,6.15,0,0,0,.5.41c.07-.35.11-.64.18-.91s-.2-.41-.36-.65a6.86,6.86,0,0,0,2-.87,1.26,1.26,0,0,0-.86,0,7.81,7.81,0,0,1-2.66.56c-.16,0-.39.07-.4-.18s.22-.23.38-.23a7,7,0,0,0,2.27-.45,4.9,4.9,0,0,0,1-.61c.08-.06.09-.22.15-.38a2.6,2.6,0,0,0-1.31.08c-.57.24-1.17.38-1.76.57-.15.05-.29.15-.45.21s-.16,0-.18,0a.3.3,0,0,1-.08-.22.39.39,0,0,1,.37-.36,6.75,6.75,0,0,0,2.07-.6,3.62,3.62,0,0,0,.86-.53.51.51,0,0,1,.53-.07,1.85,1.85,0,0,1,.88.68l.65.87a.58.58,0,0,0,.58.25,11.76,11.76,0,0,0,1.21-.23,1,1,0,0,0,.66-.51,1.7,1.7,0,0,0-.28-.21,14,14,0,0,0-3.55-1.31s-.13,0-.15,0a.55.55,0,0,1-.11-.25c0-.05.12-.14.18-.14a4.25,4.25,0,0,1,.61.08,14.55,14.55,0,0,1,2.92,1.12,11.29,11.29,0,0,0,1.32.52c.39.12.66-.15,1-.41a8.36,8.36,0,0,0-.68-.54c-.69-.43-1.38-.84-2.08-1.25-.46-.27-.92-.53-1.39-.78a1,1,0,0,1-.46-1,.39.39,0,0,1,.32-.42,2.75,2.75,0,0,1,1.21-.14.67.67,0,0,0,.39-.07,6.54,6.54,0,0,1,2.34-.53c.31,0,.62,0,.92-.1a1.71,1.71,0,0,0,1.34-2.23,5.13,5.13,0,0,1-.13-.58,7.37,7.37,0,0,0-.78.08,2.79,2.79,0,0,1-1.62,0,1,1,0,0,0-.73.15,29.45,29.45,0,0,0-3.88,2.35c-1.78,1.26-3.54,2.54-5.32,3.8-.46.33-.95.62-1.42.93-.09.06-.18.15-.27.16a.64.64,0,0,1-.4-.09c-.14-.15-.06-.32.1-.44l.09-.05,6.7-4.71a34.91,34.91,0,0,1,4.27-2.59,2.68,2.68,0,0,0,.75-.68,3.5,3.5,0,0,0,.42-4.2,3.18,3.18,0,0,0-3.22-1.49,2.16,2.16,0,0,0-1.77,1.07,2.92,2.92,0,0,1-.52.64.73.73,0,0,1-.43.26c-.34,0-.53.19-.74.38A3.89,3.89,0,0,0,526,315c-.24.59-.47,1.18-.73,1.76a3.14,3.14,0,0,1-.43.7c-.06.07-.23.05-.35.07s-.08-.25,0-.32a17.68,17.68,0,0,0,1.17-2.68,4.08,4.08,0,0,1,1.48-1.81,2.46,2.46,0,0,0,.7-.86,3.69,3.69,0,0,0,.26-2.8,2,2,0,0,0-.37-.73,1.13,1.13,0,0,0-1.17-.45A10.54,10.54,0,0,0,522,310a22.93,22.93,0,0,0-4.05,4.3c-1.26,1.68-2.49,3.37-3.74,5.05-.09.11-.16.25-.27.31a.36.36,0,0,1-.32,0c-.05,0-.05-.18,0-.27s.09-.14.14-.21c1.29-1.74,2.56-3.49,3.87-5.22a22.73,22.73,0,0,1,4.09-4.34,11.61,11.61,0,0,1,5-2.29,2.93,2.93,0,0,1,2.54.78,3.5,3.5,0,0,1,.94,1.39C530.24,309.72,530.32,309.93,530.4,310.15Zm-.64,11.93a3,3,0,0,0,.44.44c.39.24.8.46,1.2.69.75.44,1.51.88,2.24,1.35a1.64,1.64,0,0,0,1.09.43,2,2,0,0,0,1-.33,1.63,1.63,0,0,0-.92-1.09c-.47-.16-.93-.36-1.38-.55-.73-.3-1.47-.58-2.17-.93A1.6,1.6,0,0,0,529.76,322.08Zm4.93-.81a12.88,12.88,0,0,0-2.82.47l1.14.47,2.54,1.09c.33.14.39.12.54-.34A3,3,0,0,1,534.69,321.27Z"/><path class="cls-1" d="M480.6,413.91c.07-.14.12-.27.19-.38.16-.27.38-.36.59-.25s.25.29.14.58a8.08,8.08,0,0,1-.35.8.71.71,0,0,0,0,.73.37.37,0,0,0,.68.08c.07-.1.1-.22.16-.32s.12-.29.22-.34a.67.67,0,0,0,.37-.56c0-.2.16-.31.37-.26s.2.21.17.38a1.47,1.47,0,0,1-.08.35c-.11.24,0,.42.18.63a1.51,1.51,0,0,0,.15-.26,1.39,1.39,0,0,1,1.35-1,4.19,4.19,0,0,1,3,.88l.2-.12a5,5,0,0,1,3.2-1.07c.11,0,.26,0,.3,0,.23-.37.6-.25.95-.31a6.32,6.32,0,0,1,0-.87c.05-.44.12-.5.41-.54a.68.68,0,0,1,.81.39,6.46,6.46,0,0,1,.4.84.69.69,0,0,0,.39.43l1.39.68c0-.52.07-1,.11-1.42,0,0,.1-.06.16-.09l.53.53c.19-.34.33-.6.16-1a19.72,19.72,0,0,1-1.49-3.94,1.78,1.78,0,0,1-.08-.45c0-.07.08-.19.13-.19a.32.32,0,0,1,.25.1,1.27,1.27,0,0,1,.12.39,22,22,0,0,0,1.48,3.94c.11.25.12.24.5.22l.06-1c-.14-.19-.32-.4-.47-.62a.45.45,0,0,1,.06-.68c.21-.14.42-.09.63.14s.24.41.53.3.54-.23.63-.59.34-1,.5-1.51c.06-.2.17-.32.37-.26a.28.28,0,0,1,.18.38c-.07.28-.16.56-.25.84s-.19.54-.29.82c.48.1.48.1.66-.21s.16-.35.26-.5a.31.31,0,0,1,.45-.13.32.32,0,0,1,.16.43c-.15.31-.31.61-.49.91a.94.94,0,0,0,.24,1.17c.15-.21.31-.4.44-.61.25-.43.48-.88.71-1.31.06-.11.12-.22.18-.31a.36.36,0,0,1,.5-.12.33.33,0,0,1,.13.49l-1.17,2.05a1.68,1.68,0,0,0-.27.59,1.56,1.56,0,0,1-1.49,1.34c-.18-.28.14-.5.1-.82a.7.7,0,0,0-.29,0,1.13,1.13,0,0,0-.82.79,11.67,11.67,0,0,0-.31,1.45,5.74,5.74,0,0,1-.45,1.93l.26.63a2.41,2.41,0,0,0,1.44.34c.1,0,.24,0,.3,0a.93.93,0,0,1,.3.38.32.32,0,0,1-.26.39,1.75,1.75,0,0,1-.75.05c-.95-.23-1.91-.41-2.86-.61a2.18,2.18,0,0,0-2,.15c-.37-.94-1.29-1.12-2.07-1.45-.25.19-.49.36-.7.54a1.09,1.09,0,0,0-.23.33,1.44,1.44,0,0,1-2,.78,3.61,3.61,0,0,1-.57-.24,2.64,2.64,0,0,0-1.95-.12.74.74,0,0,0-.62.73c0,.12,0,.23,0,.4-.59.09-1.18.16-1.77.26-.89.16-1.78.33-2.67.54a2.72,2.72,0,0,0-.71.38c-.25.14-.41.14-.55,0s-.11-.32.1-.53l.16-.13.19-.13c-.22-.31-.4-.57-.6-.83a1.3,1.3,0,0,0-1.67-.28c-.62.42-1.25.85-1.89,1.24a15.31,15.31,0,0,1-1.54.84,3.68,3.68,0,0,1-2,.26,2.23,2.23,0,0,1-.3-1.33c0-.7.11-1.4.17-2.1,0-.22.13-.36.36-.36a.3.3,0,0,1,.34.35c0,.42,0,.83-.06,1.24a4.33,4.33,0,0,0,0,1.48,1.69,1.69,0,0,0,1.11-.16,24.52,24.52,0,0,0,3.69-2.22,4.08,4.08,0,0,1,1.59-.75c.19-.05.34-.24.5-.37a4.74,4.74,0,0,0-.42-.64c-.19-.23-.29-.51-.61-.65a1.66,1.66,0,0,1-.48-1.85.65.65,0,0,1,.89-.26A3.69,3.69,0,0,1,480.6,413.91Zm9.42,2.91.62-.31a6.3,6.3,0,0,0,.83-.5c.48-.37.47-.74,0-1.18-.68.55-1.35,1.1-2,1.62a1,1,0,0,0-.43,1.16c.31.13.66.3,1,.42s.51,0,.66-.31a.47.47,0,0,0-.21-.65A3.47,3.47,0,0,0,490,416.82Zm3.42-3.33.07-.09a2.38,2.38,0,0,0-.6-1l-.09.72Z"/><path class="cls-1" d="M511.56,416.12c-.21-.51.1-.94.12-1.47a4.1,4.1,0,0,0-1.34.9,3.79,3.79,0,0,1-.84.75c-.35.24-.74.43-1.1.66a5.65,5.65,0,0,0-.73.56,1.38,1.38,0,0,0-.3,1.52l-.76.17c-.61.1-1.21.22-1.83.29a4.19,4.19,0,0,1-2.64-.46.74.74,0,0,1-.43-.74,3.13,3.13,0,0,1,.78-2.07c.29-.32.6-.62.9-.93a1.48,1.48,0,0,0,.4-.7,2.73,2.73,0,0,1,1.34-1.75c.56-.3,1.15-.54,1.72-.81a7.09,7.09,0,0,0,.87-.44,2,2,0,0,0,1-1.74,4,4,0,0,1,.27-1.09c.15-.42.35-.82.53-1.23s.3-.38.5-.3.31.27.21.57-.34.82-.51,1.23a1.51,1.51,0,0,0-.18,1,2,2,0,0,0,1-.48c.32-.27.61-.55.92-.83.09-.08.16-.2.27-.24a1.44,1.44,0,0,1,.36,0c0,.11,0,.27,0,.32a5.79,5.79,0,0,1-2.2,1.66.6.6,0,0,0-.43.39,3.11,3.11,0,0,1-1.61,1.66c-.46.23-.94.41-1.41.62a5.75,5.75,0,0,0-.82.42,1.82,1.82,0,0,0-.95,1.94l.3-.17,2.25-1.23.84-.5.32-.16a.34.34,0,0,1,.45.14.34.34,0,0,1-.12.5c-.21.13-.44.25-.67.37l-.27.19a.34.34,0,0,0,.53.21,5.51,5.51,0,0,0,.61-.37,3.13,3.13,0,0,1,.3-.2c.53-.32.72-.27,1,.29,0,0,.05.09.11.17l.53-.28a4.85,4.85,0,0,1,.65-.31c.55-.18.9.12.85.7,0,.16-.06.33-.1.52a1.14,1.14,0,0,0,.67-.22l2.17-1.39c.13-.34.5-.36.75-.55a5.1,5.1,0,0,0,.62-.61c.17-.19.32-.4.5-.58a1.47,1.47,0,0,1,1.37-.41.92.92,0,0,1,0,1,3.32,3.32,0,0,1-.69.76,5.07,5.07,0,0,1-1.78.9s-.06.05-.09,0c-.48-.13-.77.24-1.12.45-.56.33-1.1.69-1.67,1A2.77,2.77,0,0,1,511.56,416.12Z"/><path class="cls-1" d="M452.9,418.54h1.47a1.76,1.76,0,0,0,.07.59c.08.19.3.32.43.51a2.68,2.68,0,0,1,.46,2c0,.17,0,.33-.07.51a1.41,1.41,0,0,0,1-.1,10.28,10.28,0,0,0,1.53-.84c.61-.44,1.16-1,1.75-1.43s1.3-1,2-1.5c.34-.25.57-.22.72,0s.05.43-.3.69c-.75.57-1.49,1.16-2.22,1.76a14.9,14.9,0,0,1-2.31,1.72A3.64,3.64,0,0,1,455,423a.45.45,0,0,0-.28,0,4.34,4.34,0,0,1-2.12.48.55.55,0,0,1-.58-.39,2.47,2.47,0,0,1-.18-1.56,6.25,6.25,0,0,1,.21-.74C452.34,420,452.63,419.27,452.9,418.54Zm1.73,3.28a1.56,1.56,0,0,0-.42-1.92c0,.42,0,.86-.06,1.3S454.18,421.64,454.63,421.82Z"/><path class="cls-1" d="M469,416l1.08-.56a1.51,1.51,0,0,1,1.32-.15c0,.6,0,1.2,0,1.79s.11,1.06.12,1.59a5.83,5.83,0,0,1,0,1.18,1,1,0,0,1-1.37.93c-.23-.05-.46-.12-.69-.19a1.09,1.09,0,0,1-.87-.82,4.91,4.91,0,0,0-.52-.95c-.18-.34-.33-.71-.49-1.06a.38.38,0,0,1,.13-.5.44.44,0,0,1,.53,0c.18.12.35.28.54.39s.33.13.4.07a.57.57,0,0,0,.19-.43.93.93,0,0,0-.17-.47A.87.87,0,0,1,469,416Z"/><path class="cls-1" d="M437,347.43c.17.78.35,1.52.5,2.27a1.81,1.81,0,0,0,.29.75,1,1,0,0,1,.21,1.06l-.8-.93-.09,0a3.39,3.39,0,0,0,.21.66c.33.62.69,1.22,1.07,1.81s.62.86.93,1.3a1.17,1.17,0,0,1,.17.31.18.18,0,0,1-.06.17.28.28,0,0,1-.23.05.63.63,0,0,1-.22-.21c-.5-.7-1-1.39-1.49-2.1a4.81,4.81,0,0,1-.9-2.42c-.39.06-.55-.22-.64-.5a5.57,5.57,0,0,1-.25-1.2,1,1,0,0,0-.32-.73l-.91-.79-.12,0c0,.18,0,.36,0,.54a.51.51,0,0,1-.5.54.49.49,0,0,1-.55-.49,1.66,1.66,0,0,1,.43-1.52.44.44,0,0,0,.11-.35,7,7,0,0,0-.26-.89c-.09-.27-.06-.46.12-.52a.33.33,0,0,1,.45.23,3.9,3.9,0,0,1,.3.87,2,2,0,0,0,.72,1.19,11.94,11.94,0,0,1,.91.83c.29.3.28.31.63.1l.13-.08Z"/><path class="cls-1" d="M455,409.73a2.79,2.79,0,0,1-2-.55,4.75,4.75,0,0,1-1.31-1.37c-.43-.68-.83-1.38-1.24-2.08l-1.76-3.07c-.1-.19-.16-.36,0-.5a.33.33,0,0,1,.49.11,3.06,3.06,0,0,1,.21.29c.27.44.55.87.8,1.32.43.78.81,1.59,1.27,2.35a18.56,18.56,0,0,0,1.34,1.94,2.29,2.29,0,0,0,1.11.77c-.07-.18-.11-.32-.17-.45-.53-1.11-1.08-2.22-1.61-3.33a6.94,6.94,0,0,1-.31-.87.29.29,0,0,1,.19-.41.32.32,0,0,1,.41.21c.81,1.78,1.63,3.55,2.45,5.33A1.93,1.93,0,0,1,455,409.73Z"/><path class="cls-1" d="M486,375.9c.48-.13.49-.15.48-.63v-.1c0-.22-.08-.47.15-.62s.36.11.54.18l1.76.7a.31.31,0,0,0,.47-.24,7,7,0,0,0,.23-1.26.67.67,0,0,1,.53-.7c.49-.15,1-.31,1.45-.5a4.52,4.52,0,0,0,1-.52c.48-.37.5-.7.17-1.2a2.27,2.27,0,0,1-.18-.25.27.27,0,0,1,.11-.4.48.48,0,0,1,.37,0,1.7,1.7,0,0,1,.52,1.75,2.87,2.87,0,0,1-1.53,1.24,11.83,11.83,0,0,1-1.32.4c-.33.08-.42.27-.47.58a10.91,10.91,0,0,1-.33,1.34.58.58,0,0,1-.43.41.53.53,0,0,0-.27.13,1.77,1.77,0,0,1-1.81.44A2.57,2.57,0,0,1,486,375.9Z"/><path class="cls-1" d="M502.67,347.35a3.42,3.42,0,0,1-2.89,3.31,5.61,5.61,0,0,1-1.23,0c-.29,0-.41-.18-.37-.38s.23-.26.43-.27a6.14,6.14,0,0,0,1.43-.11,2.57,2.57,0,0,0,1.93-2.06.75.75,0,0,0,0-.21s0-.06-.07-.13l-.53,0a3.53,3.53,0,0,1-.46,0,.27.27,0,0,1-.25-.33c0-.1.15-.25.25-.26.38-.06.75-.06,1.13-.1a1.62,1.62,0,0,0,.54-.1,5.35,5.35,0,0,0,1.92-1.68,2.37,2.37,0,0,0,0-3l-.07-.08c-.11-.14-.15-.28,0-.4s.3,0,.41.08a2.77,2.77,0,0,1,.7,1.46,3.15,3.15,0,0,1-.55,2.15,6.36,6.36,0,0,1-1.89,1.8Z"/><path class="cls-1" d="M467.68,335.48l1.16.31a50.41,50.41,0,0,1,12.73,5.66l1.22.77a1.06,1.06,0,0,1,.29.22.29.29,0,0,1,0,.27.28.28,0,0,1-.26.08,3.5,3.5,0,0,1-.49-.29,50.5,50.5,0,0,0-9.75-4.95c-1.54-.57-3.12-1-4.69-1.51-.08,0-.18,0-.24-.07a1.68,1.68,0,0,1-.24-.29Z"/><path class="cls-1" d="M521,315.62c.16-.21.31-.43.49-.63a6.22,6.22,0,0,1,.7-.75.4.4,0,0,1,.63.06c.14.19.11.35-.1.59s-.35.46-.55.68-.49.52-.74.77a4,4,0,0,0-.28.3,2.69,2.69,0,0,1-1.75,1.16.71.71,0,0,0-.57.6,8.61,8.61,0,0,0-.12,1c0,.44,0,.89-.11,1.33a1.44,1.44,0,0,1-.55.85.32.32,0,0,1-.46,0,.28.28,0,0,1,0-.45,1.74,1.74,0,0,0,.48-1.41,6.79,6.79,0,0,1,.12-1.43,2.85,2.85,0,0,1,.49-.88.72.72,0,0,1,.58-.27,1.67,1.67,0,0,0,1.14-.63c.18-.17.1-.37.07-.53a2.08,2.08,0,0,1,.46-1.73c0-.06.07-.14.13-.16a.42.42,0,0,1,.27,0s.07.16,0,.22a3.18,3.18,0,0,1-.23.4,1.2,1.2,0,0,0-.28.85Z"/><path class="cls-1" d="M476,358.23c.35-.05.66-.07,1-.13a.71.71,0,0,0,.31-.24,4,4,0,0,0,.69-2.28c0-.32-.26-.65-.41-1-.06-.13-.17-.22-.23-.34a.28.28,0,0,1,.08-.41.61.61,0,0,1,.42,0,.75.75,0,0,1,.27.31q.29.48.54,1a.51.51,0,0,1,.07.34,6.51,6.51,0,0,1-.63,2.37,5.69,5.69,0,0,1-.4.6.75.75,0,0,1-.65.34h-.21a1,1,0,0,0-1.08.81,3.61,3.61,0,0,1-.55,1,.28.28,0,0,1-.41.1.27.27,0,0,1-.1-.43,4.87,4.87,0,0,0,.32-.47,2.4,2.4,0,0,0,.27-1.92c-.12-.39-.17-.81-.25-1.21a2.2,2.2,0,0,1,0-.36c0-.18.08-.33.25-.32a.5.5,0,0,1,.35.21,1.7,1.7,0,0,1,.13.55C475.8,357.23,475.9,357.72,476,358.23Z"/><path class="cls-1" d="M513.24,328.64c.49-.29.91-.52,1.31-.78.57-.37,1.13-.77,1.7-1.15a1.88,1.88,0,0,1,.56-.25.24.24,0,0,1,.19.44c-.18.13-.4.2-.58.33-.5.33-1,.7-1.48,1a11.66,11.66,0,0,1-1.29.74.88.88,0,0,0-.44.45,6.75,6.75,0,0,1-.68,1.2,1.73,1.73,0,0,1-1.22.7,1.42,1.42,0,0,1-.5,0,.36.36,0,0,1-.28-.43.39.39,0,0,1,.35-.38h.1a1.42,1.42,0,0,0,1.37-1.21.66.66,0,0,0-.05-.34c-.1-.26-.23-.5-.32-.76a.48.48,0,0,1,.21-.65.5.5,0,0,1,.68.29C513,328,513.09,328.29,513.24,328.64Z"/><path class="cls-1" d="M470.45,386.66a2.27,2.27,0,0,1-1.18,2.1l-.23.11a.36.36,0,0,1-.48-.17c-.11-.18,0-.33.11-.46a.69.69,0,0,1,.17-.1,1.63,1.63,0,0,0,.86-1.92,5,5,0,0,0-2.71-3.48,3.27,3.27,0,0,1-.33-.14.31.31,0,0,1-.11-.45.58.58,0,0,1,.37-.21.7.7,0,0,1,.38.13,9.35,9.35,0,0,1,1.24.9,5.9,5.9,0,0,1,1.85,3.25C470.42,386.38,470.43,386.56,470.45,386.66Z"/><path class="cls-1" d="M517,328.76a1.49,1.49,0,0,0,0,.18q.2.68.75.24c.25-.2.48-.44.74-.63s.45-.2.6.09c-.09.14-.24.27-.24.4s.14.26.23.37.25.28.38.43c-.32.15-.59.3-.88.41a.78.78,0,0,1-.49.07.8.8,0,0,0-.72.14,1.6,1.6,0,0,1-2.24-1l1.08-.58A.9.9,0,0,1,517,328.76Z"/><path class="cls-1" d="M492.24,355.44a1.36,1.36,0,0,0-.12-.18c-.11-.13-.17-.27,0-.4s.3,0,.4.09a.72.72,0,0,0,1,.15l.09-.05c.24-.13.56-.2.69-.39a1.93,1.93,0,0,0,.26-1.29,2.25,2.25,0,0,0-.23-.72.43.43,0,0,1,.13-.59c.19-.1.4,0,.55.22a2.45,2.45,0,0,1,.3,1.59c0,.27-.12.53-.18.8a1.13,1.13,0,0,1-.89,1,8.12,8.12,0,0,0-1.35.61,2.53,2.53,0,0,1-.42.18.49.49,0,0,1-.61-.26.48.48,0,0,1,.18-.59A2.21,2.21,0,0,1,492.24,355.44Z"/><path class="cls-1" d="M445,365.83a.87.87,0,0,0-.59-.79c-.09-.05-.21-.05-.28-.12a.35.35,0,0,1-.11-.29.3.3,0,0,1,.26-.17,1.07,1.07,0,0,1,.48.17,2,2,0,0,1,.57.51,8.31,8.31,0,0,0,1.14,1.23,4.85,4.85,0,0,1,.66.85.47.47,0,0,1-.17.71c-.25.14-.48.05-.69-.24a4.46,4.46,0,0,0-1.61-1.47,4.83,4.83,0,0,1-.87-.71.23.23,0,0,1,.27-.37,7,7,0,0,1,.61.46Z"/><path class="cls-1" d="M496.23,371.35c-.34-.1-.63-.18-.92-.29a.28.28,0,0,1-.19-.37c.08-.19.23-.21.43-.14s.52.12.85.19a1.71,1.71,0,0,0-1-1,2.54,2.54,0,0,1-.38-.16c-.07,0-.14-.2-.12-.23a.39.39,0,0,1,.27-.15,1.38,1.38,0,0,1,.39.13,2.61,2.61,0,0,1,1.3,1.26,1.9,1.9,0,0,0,.26.37,1.06,1.06,0,0,1,.06,1.55,2.66,2.66,0,0,1-.59.57.46.46,0,0,1-.67-.13.52.52,0,0,1,.07-.66l.12-.09C496.45,371.85,496.45,371.85,496.23,371.35Z"/><path class="cls-1" d="M478.7,385a1,1,0,0,1-.44.82,4.35,4.35,0,0,1-1.43.67c-.3.09-.6.15-.9.23a2.58,2.58,0,0,0-1.44.83.23.23,0,0,1-.07.07.33.33,0,0,1-.48-.44,4.55,4.55,0,0,1,.9-.74,7.72,7.72,0,0,1,1.25-.44c.5-.18,1-.34,1.49-.54a.71.71,0,0,0,.47-.62c.05-.33.19-.44.41-.39S478.72,384.66,478.7,385Z"/><path class="cls-1" d="M496.81,408.38a2.29,2.29,0,0,1-1-1.34c-.21-.73-.37-1.46-.55-2.19,0-.18,0-.31.18-.36a.27.27,0,0,1,.36.2c.11.39.21.79.31,1.19s.17.7.28,1a5.06,5.06,0,0,0,.28.59,1.26,1.26,0,0,0,.14-.91c0-.27-.09-.54-.14-.81a.77.77,0,0,1,0-.3.44.44,0,0,1,.22-.24.36.36,0,0,1,.29.15,3.44,3.44,0,0,1,0,2.6A2.48,2.48,0,0,1,496.81,408.38Z"/><path class="cls-1" d="M494.94,346.44l-.26-.08a4.67,4.67,0,0,1-2.11-1.58.44.44,0,0,1,0-.68c.22-.17.43-.14.67.12s.23.26.34.38a3.39,3.39,0,0,0,1.41.92,1.57,1.57,0,0,1,.23.09.42.42,0,0,1,.24.52C495.43,346.35,495.26,346.46,494.94,346.44Z"/><path class="cls-1" d="M490.05,335.13c.5.17,1,.3,1.5.5a10.89,10.89,0,0,1,1.2.68l2,1.33c.14.09.28.18.19.36s-.29.15-.45.05-.55-.33-.82-.51c-.58-.37-1.14-.76-1.72-1.13a4.65,4.65,0,0,0-2-.73.33.33,0,0,1-.2,0c-.08-.06-.2-.14-.21-.23s.13-.21.27-.22a.74.74,0,0,1,.21,0Z"/><path class="cls-1" d="M481.83,364.52c-1,.26-1.59-.16-1.84-1.23h1.42a2,2,0,0,0,.39-1.32,2.11,2.11,0,0,0,0-.25c0-.14,0-.29.19-.3s.22.13.24.27a1.47,1.47,0,0,1,0,.36,2.07,2.07,0,0,1-.09.66A3.2,3.2,0,0,0,481.83,364.52Z"/><path class="cls-1" d="M472.84,352.19a5.7,5.7,0,0,1-.45,2.31,1,1,0,0,1-.19.36.36.36,0,0,1-.3.09.37.37,0,0,1-.13-.3.82.82,0,0,1,.11-.28,5.61,5.61,0,0,0,.13-4.07,1,1,0,0,1-.09-.35.33.33,0,0,1,.16-.27.34.34,0,0,1,.29.11.81.81,0,0,1,.14.33A5.83,5.83,0,0,1,472.84,352.19Z"/><path class="cls-1" d="M438.2,342.85c.09-.21,0-.49.31-.49s.26.26.27.46a5.83,5.83,0,0,0,.58,2.12c.25.59.5,1.19.77,1.79.06.13.19.23.26.36a.35.35,0,0,1,0,.28.33.33,0,0,1-.26.09.47.47,0,0,1-.42-.32c-.35-.88-.74-1.73-1.07-2.61C438.46,344,438.35,343.41,438.2,342.85Z"/><path class="cls-1" d="M432.54,339.64l.18.47.41-.05c.1.4.19.79.28,1.19,0,.11,0,.23,0,.35s-.15.36-.34.45a.38.38,0,0,1-.47-.08,2.43,2.43,0,0,1-.75-1.53C431.86,340,432,339.8,432.54,339.64Z"/><path class="cls-1" d="M435.05,340.64c.21.15.42.29.61.45s.21.25.08.4-.27.11-.41,0a.4.4,0,0,0-.13-.07,2.27,2.27,0,0,0,.29,2.61c.08.09.2.16.24.26a.37.37,0,0,1,0,.31.42.42,0,0,1-.32,0c-.07,0-.13-.1-.19-.16a3.06,3.06,0,0,1-.33-3.66Z"/><path class="cls-1" d="M490.85,371.05c-.3.17-.19.38,0,.59l-.85.28,0-.45c-.45-.43-1.23-.35-1.63-.92A1.67,1.67,0,0,1,490.85,371.05Z"/><path class="cls-1" d="M492.56,337.82a.32.32,0,0,1-.51.32c-.27-.16-.51-.35-.77-.51-.5-.3-1-.58-1.5-.89-.34-.21-.4-.37-.28-.55s.28-.19.62,0c.7.42,1.41.84,2.1,1.27A1.56,1.56,0,0,1,492.56,337.82Z"/><path class="cls-1" d="M501.24,414.88a1.5,1.5,0,0,1,.58-1c.36-.29.74-.56,1.11-.83a.36.36,0,0,1,.51.06.31.31,0,0,1,0,.46c-.24.22-.49.43-.74.62s-.63.42-.75.81a.31.31,0,0,1-.45.21C501.37,415.12,501.29,415,501.24,414.88Z"/><path class="cls-1" d="M468.79,354.44a4.13,4.13,0,0,1-.39,1.83,5.68,5.68,0,0,1-.55.74c-.1.11-.26.16-.35,0a.3.3,0,0,1,.06-.31,3.26,3.26,0,0,0,.8-2.57,1.53,1.53,0,0,0-.41-1c-.11-.13-.29-.22-.12-.42a.39.39,0,0,1,.49.13c.16.36.48.64.45,1.08C468.76,354.09,468.79,354.26,468.79,354.44Z"/><path class="cls-1" d="M449.5,420.76a.32.32,0,0,1-.36-.39c.14-.65.27-1.31.43-1.95a4.22,4.22,0,0,1,.35-.85.28.28,0,0,1,.43-.14.29.29,0,0,1,.08.41,7.5,7.5,0,0,0-.49,1.93,5.62,5.62,0,0,1-.22.73A1,1,0,0,1,449.5,420.76Z"/><path class="cls-1" d="M458.4,331.66c-.07-.06-.21-.14-.26-.27a5.82,5.82,0,0,1-.26-.93,3.33,3.33,0,0,0-.44-1.41.26.26,0,0,1,.06-.4.28.28,0,0,1,.42.06,3.31,3.31,0,0,1,.41.82c.16.57.27,1.16.4,1.75C458.77,331.48,458.65,331.64,458.4,331.66Z"/><path class="cls-1" d="M467.88,421.1s-.07.15-.13.17a.34.34,0,0,1-.28,0,.89.89,0,0,1-.18-.3c-.18-.42-.33-.86-.53-1.28s-.51-1-.78-1.43c-.08-.14-.2-.26,0-.4s.29,0,.39.09a6,6,0,0,1,.53.82c.34.72.64,1.47.95,2.2A1.25,1.25,0,0,1,467.88,421.1Z"/><path class="cls-1" d="M455.88,325s-.11.17-.21.2-.24-.08-.27-.23a7,7,0,0,0-.21-1c-.2-.61-.45-1.21-.68-1.82,0-.08-.11-.15-.12-.23s0-.31.05-.36.28,0,.37.15A9,9,0,0,1,455.88,325Z"/><path class="cls-1" d="M435.59,331.47a5.56,5.56,0,0,0-.11.56c0,.35-.07.7-.07,1.06s-.05.44-.26.47a.36.36,0,0,1-.44-.32,1.91,1.91,0,0,1-.07-.71c.05-.4.16-.8.25-1.2a.34.34,0,0,1,.39-.31C435.47,331,435.59,331.2,435.59,331.47Z"/><path class="cls-1" d="M453.57,360.61c-.37-.12-.68-.21-1-.33a4.71,4.71,0,0,1-1.75-1.13,1.13,1.13,0,0,1-.22-.28.24.24,0,0,1,0-.23.36.36,0,0,1,.27-.05c.07,0,.13.1.19.16a4.55,4.55,0,0,0,2.35,1.31c.05,0,.11,0,.14,0s.22.2.22.29S453.65,360.53,453.57,360.61Z"/><path class="cls-1" d="M432.57,345.71c0,.36.09.71.13,1.07l0,.41c0,.17-.05.32-.23.35s-.33-.09-.37-.27a6.59,6.59,0,0,1-.1-.76c0-.45,0-.9,0-1.34,0-.21.06-.39.31-.38s.3.19.3.4v.52Z"/><path class="cls-1" d="M465.23,384.3a5.79,5.79,0,0,1-.91-.39,4.73,4.73,0,0,1-1.48-1.6c0-.07,0-.21,0-.32s.24,0,.31.08.21.3.34.44a10,10,0,0,0,1,1,.89.89,0,0,0,1,.2c.07,0,.19,0,.28.05s0,.24-.1.3A2.12,2.12,0,0,1,465.23,384.3Z"/><path class="cls-1" d="M455.3,328.09a.83.83,0,0,1-.72-.75c-.09-.55-.13-1.11-.19-1.69a.66.66,0,0,1,.73.47,2.35,2.35,0,0,1,.17.74C455.31,327.25,455.3,327.64,455.3,328.09Z"/><path class="cls-1" d="M451.08,340c-.09.1-.14.21-.22.22s-.22-.06-.23-.13a8.56,8.56,0,0,0-1.28-2.16,2.61,2.61,0,0,1-.26-.56c0-.08.05-.2.08-.31s.24.06.29.13c.39.58.78,1.17,1.14,1.77A9.94,9.94,0,0,1,451.08,340Z"/><path class="cls-1" d="M452.46,339.65a3.09,3.09,0,0,1,0-.47c0-.09.12-.23.16-.22s.23.1.25.18a1.51,1.51,0,0,1,0,.56.55.55,0,0,1-.81.32,1.41,1.41,0,0,1-.43-.37c-.26-.42-.49-.86-.73-1.29-.07-.14,0-.29.11-.33a.35.35,0,0,1,.29.14c.16.28.29.58.45.86A1.13,1.13,0,0,0,452.46,339.65Z"/><path class="cls-1" d="M466.39,388.49a2.57,2.57,0,0,1-.58-.39A12.2,12.2,0,0,1,465,387a.3.3,0,0,1,.05-.3.32.32,0,0,1,.3,0,1.54,1.54,0,0,1,.34.38c.15.19.28.39.41.59a.57.57,0,0,0,.71.25c.05,0,.11-.05.14,0s.27.08.32.17,0,.26-.17.31Z"/><path class="cls-1" d="M437.11,339.82c-.06.07-.11.2-.18.21a.5.5,0,0,1-.37-.07,2.49,2.49,0,0,1-.33-.57c-.17-.39-.33-.78-.47-1.18,0-.1,0-.32.06-.35a.43.43,0,0,1,.4,0,1.43,1.43,0,0,1,.34.5c.18.42.34.85.5,1.28C437.08,339.7,437.09,339.75,437.11,339.82Z"/><path class="cls-1" d="M450.71,420.27a1,1,0,0,1,.34-1.3c.25-.17.52-.31.8-.47C452,419.61,451.54,420.25,450.71,420.27Z"/><path class="cls-1" d="M456.87,320a3.48,3.48,0,0,1-.42-.32,2.85,2.85,0,0,1-.61-1.33.83.83,0,0,1,.05-.44.23.23,0,0,1,.41,0,3,3,0,0,1,.63,1.84C456.92,319.81,456.9,319.87,456.87,320Z"/><path class="cls-1" d="M441.67,337.27c0,.21-.22.26-.41.12l-1-.74c-.27-.21-.55-.41-.81-.64a1.5,1.5,0,0,1-.33-.45c0-.08,0-.21,0-.32s.26,0,.3.1a4.5,4.5,0,0,0,1.33,1.13c.25.18.49.38.72.58A.68.68,0,0,1,441.67,337.27Z"/><path class="cls-1" d="M458,360.47a1.74,1.74,0,0,1,.23.12c.73.54,1.46,1.08,2.18,1.63.07,0,.16.1.18.18a.37.37,0,0,1,0,.27s-.15,0-.22,0-.09-.05-.13-.08L458,360.92a.77.77,0,0,1-.19-.17C457.73,360.62,457.83,360.47,458,360.47Z"/><path class="cls-1" d="M479.44,377.1c-.09.12-.12.2-.19.24a.19.19,0,0,1-.18,0c-.66-.5-1.45-.75-2.11-1.24a1.46,1.46,0,0,1-.28-.21.24.24,0,0,1,0-.23.25.25,0,0,1,.21-.08,1.78,1.78,0,0,1,.36.19c.6.32,1.21.63,1.8,1A2,2,0,0,1,479.44,377.1Z"/><path class="cls-1" d="M451.07,344.16c-.12.08-.19.15-.26.15a.4.4,0,0,1-.22-.1,9.58,9.58,0,0,1-1.91-1.85c-.11-.15-.35-.35-.14-.52s.33.12.44.27a10.18,10.18,0,0,0,1.76,1.71A3.64,3.64,0,0,1,451.07,344.16Z"/><path class="cls-1" d="M445.87,351.08a.88.88,0,0,1,.21.19c.37.53.73,1.08,1.09,1.62,0,.05.1.11.1.17a.45.45,0,0,1-.09.3s-.2,0-.27,0a1.69,1.69,0,0,1-.29-.35c-.32-.48-.65-1-.95-1.46C445.52,351.28,445.61,351.1,445.87,351.08Z"/><path class="cls-1" d="M464.47,371.44c-.21,0-.46.09-.46-.21s.25-.24.44-.24a2,2,0,0,1,1.4.55.78.78,0,0,1,.1,1.07c-.05.06-.17.11-.21.08s-.18-.15-.17-.21c.06-.28.14-.54-.13-.76A1.57,1.57,0,0,0,464.47,371.44Z"/><path class="cls-1" d="M452.27,355.26a5,5,0,0,1-.7-.33,7.8,7.8,0,0,1-.69-.6c-.24-.22-.49-.42-.72-.65a.68.68,0,0,1-.11-.29c.11,0,.24-.07.31,0a3.45,3.45,0,0,1,.53.39c.22.2.4.44.63.61s.56.3.83.47c.08.05.12.17.18.26Z"/><path class="cls-1" d="M471.6,375.9a1.49,1.49,0,0,1,0,.19,3.71,3.71,0,0,1-.86,1.55,1.49,1.49,0,0,1-.41.3c-.08,0-.21,0-.32,0s0-.27.08-.31a2.76,2.76,0,0,0,1.06-1.59.52.52,0,0,1,.12-.22.31.31,0,0,1,.23-.05C471.52,375.76,471.56,375.86,471.6,375.9Z"/><path class="cls-1" d="M495.65,411.35c-.09.1-.16.23-.24.24a.3.3,0,0,1-.23-.18,3.61,3.61,0,0,0-.56-1.21,4.83,4.83,0,0,1-.36-.84c0-.08.08-.2.13-.3.09.06.21.1.26.19.21.37.42.74.6,1.13S495.51,411,495.65,411.35Z"/><path class="cls-1" d="M492.7,376.19c0-.11,0-.15,0-.18s0-.27.2-.29a.23.23,0,0,1,.26.25,2.32,2.32,0,0,1-.05.7,1.75,1.75,0,0,1-1.1,1.13c-.14.06-.28.09-.36-.06s0-.28.18-.36a1.94,1.94,0,0,0,.4-.22A1.05,1.05,0,0,0,492.7,376.19Z"/><path class="cls-1" d="M431.05,343.3c0,.53,0,1,0,1.38s-.2.39-.44.24a1.14,1.14,0,0,1,0-1.56A1.19,1.19,0,0,1,431.05,343.3Z"/><path class="cls-1" d="M474.7,378.53a2.15,2.15,0,0,1-.32,1.13.88.88,0,0,1-.19.24.77.77,0,0,1-.27,0,.63.63,0,0,1,0-.27c.09-.18.23-.35.3-.53a1.56,1.56,0,0,0-.05-1.35c0-.08-.11-.14-.12-.22s0-.21,0-.22.23,0,.26,0a3.6,3.6,0,0,1,.32.69A1.75,1.75,0,0,1,474.7,378.53Z"/><path class="cls-1" d="M516.15,341.62a2.27,2.27,0,0,1-.23.31,4.44,4.44,0,0,0-1,1.77.36.36,0,0,1-.06.19c0,.05-.13.1-.17.08s-.15-.11-.15-.17a1.05,1.05,0,0,1,.08-.35,4.63,4.63,0,0,1,1.08-1.79C515.8,341.52,515.92,341.41,516.15,341.62Z"/><path class="cls-1" d="M430.08,315.24c.08-.77.41-1,1.25-.81C431.38,315.19,430.9,315.5,430.08,315.24Z"/><path class="cls-1" d="M462.16,419.44c.19,1-.15,1.62-.81,1.51A1.32,1.32,0,0,1,462.16,419.44Z"/><path class="cls-1" d="M480.62,386.12c.2-.2.39-.37.56-.56s.31-.4.59-.44a.83.83,0,0,1-.27,1.12C481.17,386.47,480.94,386.44,480.62,386.12Z"/><path class="cls-1" d="M461.56,369.38l.34-.63c-.17-.28-.61-.32-.48-.73l.79.4a.45.45,0,0,1,.26.69.64.64,0,0,1-.54.42C461.81,369.53,461.69,369.43,461.56,369.38Z"/><path class="cls-1" d="M483,337c.51.13,1,.26,1.53.41a.23.23,0,0,1,.11.2c0,.06-.11.15-.17.15a2.34,2.34,0,0,1-.45-.07,3.45,3.45,0,0,0-1.31-.23c-.14,0-.31,0-.28-.2s.15-.15.25-.19a.75.75,0,0,1,.3,0Z"/><path class="cls-1" d="M500.65,370a.28.28,0,0,1-.36.28,6.73,6.73,0,0,1-1-.52.31.31,0,0,1-.09-.3c0-.09.23-.22.3-.19.39.17.76.38,1.13.58C500.63,369.85,500.64,369.94,500.65,370Z"/><path class="cls-1" d="M445.86,361.09s.12.06.15.12a3,3,0,0,0,1.07,1.08c.13.08.24.17.14.33s-.23.08-.35,0a3.18,3.18,0,0,1-1.18-1.18C445.6,361.26,445.65,361.11,445.86,361.09Z"/><path class="cls-1" d="M464.29,420.66c0,.55.73.91.37,1.52-.44.08-.54,0-.64-.34A1.16,1.16,0,0,1,464.29,420.66Z"/><path class="cls-1" d="M447.72,361.05a3,3,0,0,1,.4.23,2.57,2.57,0,0,1,.68,1.17c0,.06-.06.19-.12.24s-.16,0-.21-.08a.84.84,0,0,1-.15-.26c-.17-.36-.3-.73-.7-.91a.26.26,0,0,1-.09-.21C447.54,361.17,447.64,361.12,447.72,361.05Z"/><path class="cls-1" d="M450.64,314.66l1,1.48-.1.09a1.34,1.34,0,0,1-.94-.7C450.38,315.22,450.39,315.07,450.64,314.66Z"/><path class="cls-1" d="M481.48,381.33l-.79.23c.09-.38.17-.75.28-1.1a.4.4,0,0,1,.51-.27Z"/><path class="cls-1" d="M443.32,339.31a.28.28,0,0,1-.39.26,6.18,6.18,0,0,1-.76-.59.26.26,0,0,1,0-.27c.06-.08.23-.17.28-.14a10.49,10.49,0,0,1,.85.64S443.31,339.27,443.32,339.31Z"/><path class="cls-1" d="M445.22,363.73c.33.28.64.51.92.78s.22.33,0,.53c-.3-.25-.61-.49-.89-.76S445,364,445.22,363.73Z"/><path class="cls-1" d="M448.93,346.58a2.52,2.52,0,0,1,1.74,1.13A2.51,2.51,0,0,1,448.93,346.58Z"/><path class="cls-1" d="M432.78,350.62l.31.84c.06.18.12.37.17.55-.26.19-.46.18-.62,0A1.22,1.22,0,0,1,432.78,350.62Z"/><path class="cls-1" d="M466,363.29a2.69,2.69,0,0,1,1.77.57A1.49,1.49,0,0,1,466,363.29Z"/><path class="cls-1" d="M471.64,381.15c-.06-.11-.18-.22-.15-.28a12.78,12.78,0,0,1,.52-1.2c0-.05.23-.06.26,0a.36.36,0,0,1,.06.3c-.12.33-.28.66-.42,1,0,0,0,.08-.05.1Z"/><path class="cls-1" d="M438.7,352.51c.28.24.59.48.86.75s.25.38-.09.65c-.25-.31-.51-.62-.75-1S438.57,352.71,438.7,352.51Z"/><path class="cls-1" d="M441.64,352.36c-.17-.37-.35-.7-.5-1.05s-.06-.48.43-.47a1.58,1.58,0,0,0,.29,1C442,352.14,442,352.17,441.64,352.36Z"/><path class="cls-1" d="M434.2,355.79c-.14-.39-.29-.77-.41-1.16A.47.47,0,0,1,434,354l.4,1.09C434.55,355.45,434.53,355.53,434.2,355.79Z"/><path class="cls-1" d="M493.71,408.13c-.21-.32-.4-.6-.58-.89s-.17-.45.16-.61c.2.3.4.59.58.9S494,407.87,493.71,408.13Z"/><path class="cls-1" d="M462.86,354.87l-.27.29c-.5-.42-1.16-.19-1.77-.49l.31-.33Z"/><path class="cls-1" d="M472.11,338.33c-.92.17-1.3,0-1.48-.5A1.94,1.94,0,0,1,472.11,338.33Z"/><path class="cls-1" d="M457.3,372.68a1.27,1.27,0,0,1,1.37.49A1.08,1.08,0,0,1,457.3,372.68Z"/><path class="cls-1" d="M503.49,366.18c0,.06,0,.1,0,.13s.28.28,0,.41-.31-.08-.4-.21a.5.5,0,0,1,0-.61.86.86,0,0,1,.72-.12s.11.11.1.16a.27.27,0,0,1-.13.18A1.75,1.75,0,0,1,503.49,366.18Z"/><path class="cls-1" d="M485.26,333.73c.63.06,1.24-.27,1.89.15C486,334.16,485.54,334.13,485.26,333.73Z"/><path class="cls-1" d="M521.64,316.71a1.56,1.56,0,0,1-.85,1.42A1.8,1.8,0,0,1,521.64,316.71Z"/><path class="cls-1" d="M477.49,382a1.64,1.64,0,0,1,1.22.16.68.68,0,0,1-.74.37A.5.5,0,0,1,477.49,382Z"/><path class="cls-1" d="M439.45,316.22c.08-.59.22-.67.89-.56C440.34,316.22,440.11,316.37,439.45,316.22Z"/><path class="cls-1" d="M419.94,416.5c.16-.53.71-.62,1.34-.22A1.6,1.6,0,0,1,419.94,416.5Z"/><path class="cls-1" d="M440.46,360.26c.19.29.38.57.54.86,0,.08,0,.21-.05.31s-.24,0-.29-.11-.28-.43-.41-.65S440.17,360.38,440.46,360.26Z"/><path class="cls-1" d="M434.67,337.84c-.09,0-.17,0-.18-.07a8.62,8.62,0,0,1-.41-.8s.07-.16.13-.19.21,0,.23,0a5.85,5.85,0,0,1,.4.79C434.87,337.65,434.73,337.76,434.67,337.84Z"/><path class="cls-1" d="M492.05,333.05c.12.24.05.37-.15.38a6.32,6.32,0,0,1-.87,0,.28.28,0,0,1-.19-.19c0-.05.11-.18.17-.19Z"/><path class="cls-1" d="M475.9,342.41a1.35,1.35,0,0,1-1.2-.52A.8.8,0,0,1,475.9,342.41Z"/><path class="cls-1" d="M441.18,357.4l.5,1-.36.26a8.22,8.22,0,0,1-.35-.77C440.91,357.71,440.91,357.49,441.18,357.4Z"/><path class="cls-1" d="M456.15,334.22c.09-.1.15-.24.23-.25a.36.36,0,0,1,.27.15,2.34,2.34,0,0,1,.27.55.34.34,0,0,1-.07.3.31.31,0,0,1-.31-.06A5.47,5.47,0,0,1,456.15,334.22Z"/><path class="cls-1" d="M466.57,380.46a1.23,1.23,0,0,1,1.19.55C467.05,381.17,466.77,381.05,466.57,380.46Z"/><path class="cls-1" d="M487.34,369.88l.71.52a.35.35,0,0,1-.42.32.55.55,0,0,1-.48-.39A.32.32,0,0,1,487.34,369.88Z"/><path class="cls-1" d="M474.63,386a1.33,1.33,0,0,1-1.18-.57C474.17,385.32,474.45,385.45,474.63,386Z"/><path class="cls-1" d="M448.58,310.9a.9.9,0,0,1,.73.67.21.21,0,0,1-.36.16,4.17,4.17,0,0,1-.47-.47.25.25,0,0,1,0-.22C448.46,311,448.55,310.93,448.58,310.9Z"/><path class="cls-1" d="M490.42,368.85c.33.12.65.22.95.35.06,0,.09.17.09.25s-.14.1-.2.09c-.32-.1-.64-.21-.95-.33a.21.21,0,0,1-.08-.2C490.25,369,490.34,368.91,490.42,368.85Z"/><path class="cls-1" d="M464,336.8l.34.57c-.64.16-.91,0-.86-.55Z"/><path class="cls-1" d="M447.2,356c0-.2.17-.23.33-.16a1.12,1.12,0,0,1,.63.63c0,.08,0,.19,0,.28s-.21,0-.27-.05C447.63,356.47,447.42,356.23,447.2,356Z"/><path class="cls-1" d="M494.24,404.74a1,1,0,0,1-.16.91l-.41-.38C493.77,404.75,493.77,404.75,494.24,404.74Z"/><path class="cls-1" d="M498.34,375.11v-.57h.6v.57Z"/><path class="cls-1" d="M451.66,347c-.08,0-.15.14-.23.16a.8.8,0,0,1-.76-.4.27.27,0,0,1,0-.23.18.18,0,0,1,.17-.05c.24.11.47.23.71.36C451.61,346.84,451.62,346.9,451.66,347Z"/><path class="cls-1" d="M494.45,365.73l-1.13-.47a1,1,0,0,1,1.18.21C494.62,365.63,494.53,365.71,494.45,365.73Z"/><path class="cls-1" d="M454.21,333c-.08.15-.17.41-.25.41-.31,0-.2-.28-.22-.46a.52.52,0,0,1,0-.25,1.06,1.06,0,0,1,.19-.24,1.57,1.57,0,0,1,.2.25.7.7,0,0,1,0,.25Z"/><path class="cls-1" d="M454.68,333.06c-.17-.48-.17-.57,0-.93C455.16,332.39,455.17,332.77,454.68,333.06Z"/><path class="cls-1" d="M487.27,334.58c.2.05.47-.08.48.2s-.28.21-.46.21-.5.1-.5-.18S487.12,334.66,487.27,334.58Z"/><path class="cls-1" d="M448.55,346c-.16.07-.25.13-.28.11-.28-.18-.55-.38-.88-.61l.35-.28-.13.19Z"/><path class="cls-1" d="M501.8,356.5a1.34,1.34,0,0,1,.07-.18l.16-.26.62.47C502.22,356.8,502.18,356.8,501.8,356.5Z"/><path class="cls-1" d="M456.21,370.42c-.49,0-.64-.07-.81-.53C455.9,369.86,456,370,456.21,370.42Z"/><path class="cls-1" d="M477.88,363.76l1,.27a.52.52,0,0,1-.63.24A.56.56,0,0,1,477.88,363.76Z"/><path class="cls-1" d="M444.61,351.71a3.42,3.42,0,0,1,.43.42.31.31,0,0,1-.08.27c-.16.09-.38-.07-.51-.3S444.4,351.79,444.61,351.71Z"/><path class="cls-1" d="M473.47,340.92c.5,0,.64.06.81.53C473.78,341.47,473.64,341.37,473.47,340.92Z"/><path class="cls-1" d="M520.16,328.73c.34-.3.34-.3.69-.29a.39.39,0,0,1-.16.52C520.45,329.08,520.31,328.92,520.16,328.73Z"/><path class="cls-1" d="M461.44,332.66c.18.22.33.39.46.57a.36.36,0,0,1-.18.19c-.2,0-.53-.3-.5-.5S461.34,332.78,461.44,332.66Z"/><path class="cls-1" d="M440.73,352a.57.57,0,0,1-.17.12.55.55,0,0,1-.52-.51.31.31,0,0,1,.15-.17C440.31,351.38,440.74,351.82,440.73,352Z"/><path class="cls-1" d="M464.79,362.87c-.14.07-.25.16-.32.14a.69.69,0,0,1-.33-.23c-.11-.12-.18-.28,0-.41s.24,0,.34.12A4.76,4.76,0,0,0,464.79,362.87Z"/><path class="cls-1" d="M488.68,332.46c.21-.19.38-.38.68-.31a.35.35,0,0,1-.12.53C489,332.82,488.84,332.66,488.68,332.46Z"/><path class="cls-1" d="M463.56,336a3.13,3.13,0,0,1,.53,0,.22.22,0,0,1,.21.28.28.28,0,0,1-.4.2,2.72,2.72,0,0,1-.38-.29Z"/><path class="cls-1" d="M453.62,316.59l.14.26-.07,0-.12-.24Z"/><path class="cls-1" d="M449.24,374.81a1.89,1.89,0,0,1,.53,1l-.59-.13Z"/><path class="cls-1" d="M507,364.72c-.3.3-.65.17-1.07.14.13-.29.34-.26.52-.28H507Z"/><path class="cls-1" d="M442,370.72l.32-.48c.27.23.28.3,0,.78Z"/><path class="cls-1" d="M494.46,385.71a1,1,0,0,1-.77-.72.34.34,0,0,1,.23-.48A1.46,1.46,0,0,1,494.46,385.71Z"/><path class="cls-1" d="M494.61,386.61a.69.69,0,0,1-.92-.35c-.09-.23-.07-.43.22-.52Z"/><text class="cls-2" transform="translate(220.88 281.96) rotate(-79.45)">T</text><text class="cls-2" transform="translate(224.24 257.44) rotate(-69.36)">w</text><text class="cls-2" transform="translate(239.49 218.02) rotate(-58.35)">e</text><text class="cls-2" transform="translate(253.25 193.79) rotate(-47.5)">w</text><text class="cls-2" transform="matrix(0.8, -0.6, 0.6, 0.8, 281.95, 163.05)">a</text><text class="cls-2" transform="translate(303.53 146.61) rotate(-28.43)">y</text><text class="cls-2" transform="translate(326.7 133.65) rotate(-19.62)">o</text><text class="cls-2" transform="matrix(0.97, -0.22, 0.22, 0.97, 355.82, 123.74)"> </text><text class="cls-2" transform="matrix(1, -0.1, 0.1, 1, 366.53, 120.34)">A</text><text class="cls-2" transform="translate(400.97 116.82) rotate(4.36)">g</text><text class="cls-2" transform="translate(432.21 119.48) rotate(12.15)">r</text><text class="cls-2" transform="translate(450.97 123.58) rotate(17.26)">i</text><text class="cls-2" transform="matrix(0.91, 0.41, -0.41, 0.91, 463.3, 126.68)">b</text><text class="cls-2" transform="translate(491.48 139.16) rotate(33.65)">u</text><text class="cls-2" transform="matrix(0.74, 0.67, -0.67, 0.74, 516.29, 155.72)">s</text><text class="cls-2" transform="translate(534.36 172.26) rotate(47.81)">i</text><text class="cls-2" transform="matrix(0.58, 0.81, -0.81, 0.58, 543.39, 181.29)">n</text><text class="cls-2" transform="translate(560.71 205.25) rotate(63.56)">e</text><text class="cls-2" transform="matrix(0.31, 0.95, -0.95, 0.31, 573.51, 231)">s</text><text class="cls-2" transform="translate(581.14 253.76) rotate(79.39)">s</text><text class="cls-3" transform="translate(218.9 422.31) rotate(52.61)">C</text><text class="cls-3" transform="translate(238.4 447.5) rotate(44.84)">o</text><text class="cls-3" transform="translate(259.22 468.73) rotate(35.37)">m</text><text class="cls-3" transform="translate(295.3 493.4) rotate(25.75)">p</text><text class="cls-3" transform="matrix(0.95, 0.32, -0.32, 0.95, 322.25, 506.17)">a</text><text class="cls-3" transform="translate(347.71 514.55) rotate(11.12)">n</text><text class="cls-3" transform="translate(375.44 519.84) rotate(4.07)">y</text><text class="cls-3" transform="translate(401.42 521.35) rotate(-0.93)"> </text><text class="cls-3" transform="matrix(1, -0.1, 0.1, 1, 413.73, 521.38)">L</text><text class="cls-3" transform="translate(438.66 518.61) rotate(-10.66)">i</text><text class="cls-3" transform="translate(452.82 516.77) rotate(-18.14)">m</text><text class="cls-3" transform="matrix(0.9, -0.43, 0.43, 0.9, 493.44, 502.34)">i</text><text class="cls-3" transform="translate(505.5 496.64) rotate(-29.9)">t</text><text class="cls-3" transform="translate(522.94 486.74) rotate(-36.06)">e</text><text class="cls-3" transform="translate(545.44 470.28) rotate(-43.52)">d</text><circle class="cls-4" cx="404.25" cy="305.63" r="248.24"/><circle class="cls-4" cx="404.25" cy="305.63" r="162.66"/><circle class="cls-1" cx="607.4" cy="334.46" r="8.28"/><circle class="cls-1" cx="196.85" cy="334.46" r="8.28"/></svg>